<?xml version="1.0" encoding="utf-8"?>
<!-- Generator: Adobe Illustrator 16.0.0, SVG Export Plug-In . SVG Version: 6.00 Build 0)  -->
<!DOCTYPE svg PUBLIC "-//W3C//DTD SVG 1.1//EN" "http://www.w3.org/Graphics/SVG/1.1/DTD/svg11.dtd">
<svg version="1.1" xmlns="http://www.w3.org/2000/svg" xmlns:xlink="http://www.w3.org/1999/xlink" x="0px" y="0px" width="5000px"
	 height="5000px" viewBox="0 0 5000 5000" enable-background="new 0 0 5000 5000" xml:space="preserve">
<g id="Layer_1">
	<g>
		<path fill="#FFFFFF" d="M505.48,1295.581c0-142.24,0-284.48,0-426.72c587.2,0,1174.4,0,1761.6,0c0,142.24,0,284.48,0,426.72
			C1679.88,1295.581,1092.68,1295.581,505.48,1295.581z M1540.979,997.133c-56.437,0-112.467,0-168.543,0
			c-7.901,36.911-15.769,73.664-23.522,109.89c1.246,0.989,2.135,1.57,2.864,2.308c0.783,0.792,1.506,1.675,2.093,2.62
			c0.904,1.457,2.105,1.852,3.798,1.849c31.994-0.049,63.989-0.037,95.983-0.037c0.86,0,1.721,0,2.636,0
			c4.461-21.09,8.867-41.916,13.272-62.742c0.843,0.808,1.264,1.625,1.61,2.473c7.082,17.303,14.151,34.611,21.242,51.911
			c0.458,1.118,0.608,2.56,2.38,2.58c0.342,0.004,0.707,0.592,1.007,0.955c0.816,0.986,1.68,1.944,2.382,3.008
			c0.928,1.407,2.105,1.859,3.803,1.854c18.077-0.061,36.154-0.066,54.23,0.007c1.8,0.007,2.907-0.598,4.036-1.924
			c14.514-17.048,29.083-34.051,43.64-51.062c0.609-0.711,1.252-1.394,1.879-2.09c0.133,0.063,0.267,0.126,0.4,0.188
			c-3.482,16.188-6.964,32.374-10.356,48.139c1.243,1.004,2.222,1.702,3.084,2.521c0.632,0.6,1.196,1.309,1.644,2.057
			c1.009,1.687,2.385,2.178,4.366,2.174c31.834-0.067,63.669-0.047,95.503-0.047c0.866,0,1.731,0,2.63,0
			c0.213-0.723,0.403-1.244,0.518-1.781c1.439-6.717,2.872-13.435,4.298-20.155c5.873-27.663,11.697-55.336,17.68-82.975
			c0.637-2.941,0.448-5.201-1.771-7.329c-1.203-1.154-2.542-2.425-1.957-4.567c-1.303,0-2.335,0-3.369,0
			c-52.951,0-105.902,0-158.853,0c-0.4,0-0.807,0.046-1.199-0.008c-1.418-0.195-2.347,0.353-3.175,1.552
			c-2.271,3.29-4.672,6.489-7.04,9.711c-0.35,0.477-0.797,0.882-1.358,1.493c-0.355-1.219-0.555-2.16-0.906-3.04
			c-0.406-1.019-0.795-2.102-1.458-2.948C1542.891,1001.724,1540.797,1000.07,1540.979,997.133z M520.767,1148.907
			c0,35.017,0,69.917,0,104.873c6.61,0,13.052,0,19.781,0c0-24.704,0-49.266,0-73.828c0.159-0.047,0.318-0.094,0.478-0.142
			c2.968,4.033,5.939,8.063,8.902,12.1c2.981,4.062,5.951,8.131,8.93,12.194c2.978,4.064,5.941,8.139,8.946,12.184
			c2.972,4.001,5.756,8.151,9.21,12.254c12.159-16.526,24.099-32.752,36.038-48.979c0.187,0.066,0.373,0.133,0.56,0.2
			c0,24.657,0,49.314,0,73.98c6.88,0,13.47,0,20.11,0c0-35.019,0-69.858,0-104.94c-0.938,0-1.718,0-2.498,0
			c-5.52,0-11.04,0.061-16.558-0.037c-1.7-0.03-2.741,0.5-3.733,1.914c-10.75,15.315-21.572,30.58-32.379,45.854
			c-0.393,0.556-0.837,1.076-1.354,1.737c-0.607-0.812-1.097-1.436-1.554-2.083c-10.754-15.215-21.518-30.423-32.23-45.667
			c-0.873-1.242-1.769-1.787-3.332-1.759c-5.678,0.101-11.358,0.037-17.038,0.044
			C522.34,1148.809,521.635,1148.868,520.767,1148.907z M1982.426,997.382c-0.192-0.014-0.583-0.069-0.975-0.069
			c-79.261,0.002-158.521,0.007-237.781,0.019c-0.233,0-0.469,0.084-0.699,0.145c-0.071,0.019-0.13,0.087-0.191,0.138
			s-0.117,0.106-0.215,0.195c-4.66,21.993-9.329,44.029-14,66.064c-0.754,3.558-0.873,7.124-0.201,10.71
			c1.007,5.372,3.501,10.07,6.492,14.562c2.596,3.897,6.084,6.978,9.275,10.333c3.604,3.789,7.58,7.112,12.103,9.749
			c4.919,2.868,10.165,4.549,15.933,4.548c63.345-0.02,126.689-0.012,190.034-0.018c0.775,0,1.55-0.082,2.261-0.122
			c0.122-0.465,0.191-0.695,0.241-0.928c2.86-13.358,5.621-26.738,8.654-40.057c0.681-2.992,0.349-5.267-1.897-7.284
			c-0.293-0.264-0.554-0.592-0.743-0.938c-0.58-1.064-1.118-2.151-1.84-3.555c-0.522,0-1.474,0-2.425,0
			c-37.831,0-75.661,0-113.492,0c-1.04,0-2.08,0.011-3.119-0.006c-2.475-0.041-4.7-0.833-6.707-2.266
			c-2.615-1.867-3.644-5.495-2.393-8.813c45.67,0,91.4,0,137.192,0c0.239-0.975,0.468-1.811,0.65-2.656
			c2.842-13.198,5.663-26.4,8.534-39.591c0.359-1.65,0.459-3.067-0.959-4.339c-0.881-0.79-1.594-1.8-2.248-2.799
			C1983.37,999.58,1983.025,998.627,1982.426,997.382z M1072.54,1113.763c0.287-1.193,0.511-2.038,0.692-2.892
			c7.347-34.62,14.685-69.242,22.051-103.858c0.32-1.508,0.292-2.791-0.889-3.955c-0.792-0.781-1.364-1.78-2.132-2.589
			c-0.917-0.965-1.385-2.033-1.038-3.338c-93.642,0-187.107,0-280.68,0c-7.899,36.899-15.767,73.654-23.529,109.914
			c1.231,0.959,2.125,1.522,2.846,2.255c0.836,0.851,1.628,1.787,2.246,2.803c0.87,1.434,2.083,1.687,3.637,1.685
			c31.995-0.033,63.991-0.024,95.986-0.03c0.779,0,1.557-0.073,2.392-0.115c4.406-20.708,8.774-41.24,13.159-61.85
			c23.251,0,46.338,0,69.707,0c-3.871,18.714-8.013,37.207-11.721,55.228c1.25,1.012,2.124,1.608,2.857,2.345
			c0.729,0.732,1.418,1.546,1.943,2.432c0.981,1.655,2.371,2.004,4.211,2.001c31.836-0.05,63.671-0.036,95.507-0.036
			C1070.651,1113.763,1071.519,1113.763,1072.54,1113.763z M1057.378,1217.353c1.166,0,1.954,0,2.742,0
			c6.56,0,13.121,0.104,19.677-0.061c2.108-0.053,3.327,0.693,4.548,2.292c8.352,10.93,16.794,21.79,25.195,32.681
			c0.749,0.97,1.438,1.718,2.898,1.699c6.958-0.093,13.918-0.038,20.877-0.055c0.411-0.001,0.821-0.182,1.42-0.323
			c-10.278-13.172-20.396-26.138-30.583-39.193c2.645-1.003,5.062-1.787,7.37-2.816c11.69-5.216,18.771-13.846,19.579-26.957
			c0.822-13.327-5.057-24.901-18.194-30.948c-7.715-3.551-15.899-4.778-24.267-4.834c-16.478-0.11-32.957-0.035-49.435-0.026
			c-0.692,0-1.385,0.099-2.146,0.156c0,35.015,0,69.85,0,104.782c6.801,0,13.461,0,20.317,0
			C1057.378,1241.606,1057.378,1229.636,1057.378,1217.353z M1577.919,1214.29c1.59-0.521,2.804-0.894,4-1.316
			c6.362-2.25,12.199-5.442,16.373-10.845c8.101-10.485,8.789-22.005,3.649-33.902c-3.396-7.863-9.908-12.544-17.674-15.624
			c-7.089-2.811-14.532-3.735-22.078-3.773c-16.232-0.084-32.465-0.026-48.698-0.026c-0.779,0-1.558,0-2.486,0
			c0,35.138,0,70.029,0,104.98c6.768,0,13.369,0,20.248,0c0-12.16,0-24.184,0-36.318c8.57,0,16.861,0,25.191,0
			c0.343,0.426,0.701,0.854,1.042,1.294c8.66,11.191,17.332,22.372,25.953,33.593c0.859,1.118,1.743,1.617,3.18,1.602
			c6.636-0.071,13.274-0.028,19.911-0.037c0.597-0.001,1.194-0.082,2.189-0.154c-5.301-6.796-10.348-13.268-15.396-19.739
			C1588.265,1227.544,1583.207,1221.065,1577.919,1214.29z M718.813,1147.197c-1.038,0-2.077-0.031-3.113,0.004
			c-12.52,0.425-24.07,3.903-34.418,11.058c-19.676,13.604-27.912,37.71-20.263,60.029c5.563,16.236,16.987,26.937,32.778,33.119
			c10.555,4.132,21.545,5.179,32.76,3.903c14.448-1.643,27.146-7.125,37.333-17.701c12.34-12.811,16.933-28.209,14.007-45.625
			c-2.439-14.521-10.293-25.825-22.396-34.117C744.465,1150.308,732.074,1147.164,718.813,1147.197z M1426.394,1146.828
			c-4.283,0.466-8.61,0.683-12.84,1.442c-13.899,2.494-25.981,8.581-35.051,19.565c-13.187,15.97-16.06,33.964-8.663,53.257
			c5.337,13.92,15.635,23.353,29.148,29.288c11.079,4.866,22.723,6.218,34.713,4.997c10.695-1.088,20.671-4.321,29.437-10.588
			c17.427-12.459,25.453-29.447,22.783-50.796c-2.013-16.096-10.636-28.371-24.196-37.117
			C1451.005,1149.961,1439.077,1147.141,1426.394,1146.828z M951.157,1147.081c-1.625,0.125-4.662,0.256-7.673,0.611
			c-10.592,1.247-20.31,4.84-29.019,11.052c-18.605,13.271-26.664,36.113-20.114,57.847c4.709,15.626,15.049,26.488,29.699,33.297
			c11.528,5.358,23.725,6.829,36.285,5.432c14.452-1.607,27.143-7.093,37.366-17.629c11.645-12.001,16.434-26.484,14.498-42.996
			c-1.683-14.35-8.634-25.946-20.018-34.788C980.551,1150.875,967.119,1147.186,951.157,1147.081z M2257.547,1113.642
			c-1.22-1.545-2.191-2.77-3.154-4.001c-0.344-0.439-1.023-1-0.93-1.332c0.45-1.596-0.831-2.281-1.548-3.19
			c-4.455-5.652-8.968-11.259-13.469-16.875c-9.452-11.794-18.915-23.581-28.345-35.393c-0.543-0.68-1.456-1.243-1.337-2.328
			c1.702-0.152,3.301-0.236,4.881-0.447c7.382-0.987,13.918-4.073,19.953-8.28c11.277-7.86,19.495-18.342,25.773-30.442
			c1.096-2.113,2.038-4.305,3.074-6.511c-1.189-1.407-2.242-2.706-3.354-3.952c-0.967-1.083-1.961-2.118-0.984-3.933
			c-1.156,0-2.022-0.002-2.888,0c-8.797,0.025-17.595,0.065-26.392,0.074c-35.832,0.036-71.663,0.07-107.495,0.089
			c-25.115,0.014-50.229-0.018-75.344,0.011c-13.273,0.015-26.547,0.111-39.821,0.179c-0.698,0.004-1.395,0.085-2.238,0.14
			c-7.793,36.763-15.558,73.396-23.227,109.57c1.25,1.044,2.273,1.818,3.194,2.698c0.63,0.603,1.206,1.303,1.649,2.053
			c0.967,1.638,2.335,2.032,4.19,2.029c31.833-0.053,63.667-0.039,95.5-0.039c0.871,0,1.741,0,2.838,0
			c1.443-6.828,2.86-13.528,4.276-20.229c1.437-6.801,2.854-13.606,4.315-20.402c1.426-6.632,2.645-13.313,4.395-20.271
			c1.07,1.216,1.805,2.049,2.538,2.883c16.407,18.655,31.887,38.118,48.958,56.197c1.19,1.261,2.31,1.867,4.093,1.864
			c32.713-0.057,65.426-0.041,98.139-0.045C2255.555,1113.758,2256.321,1113.695,2257.547,1113.642z M636.42,1050.403
			c1.265,0,2.22,0,3.175,0c32.793,0,65.587-0.048,98.381,0.036c7.65,0.02,14.688-1.864,21.306-5.569
			c10.719-6,18.888-14.646,25.615-24.77c3.189-4.799,5.885-9.863,8.106-15.296c-1.113-1.403-2.169-2.802-3.301-4.137
			c-0.888-1.047-1.693-2.07-0.833-3.727c-83.514,0.217-166.744-0.003-250.101,0.377c-7.814,36.867-15.577,73.492-23.239,109.644
			c1.292,1.111,2.316,1.885,3.208,2.79c0.782,0.793,1.48,1.689,2.096,2.619c0.75,1.131,1.734,1.417,3.044,1.415
			c32.313-0.029,64.627-0.021,96.941-0.029c0.696,0,1.393-0.096,2.11-0.148C627.433,1092.508,631.899,1071.585,636.42,1050.403z
			 M1281.604,1220.344c0.968-0.043,1.746-0.106,2.524-0.107c6.956-0.008,13.912-0.017,20.868-0.001
			c5.381,0.013,10.681-0.621,15.901-1.911c5.872-1.45,11.413-3.695,16.269-7.349c11.905-8.959,15.178-21.117,12.303-35.151
			c-2.1-10.251-8.631-17.25-17.875-21.825c-7.766-3.843-16.118-5.096-24.649-5.164c-14.471-0.116-28.943-0.034-43.415-0.025
			c-0.688,0.001-1.375,0.102-2.015,0.152c-0.547,3.401-0.372,103.147,0.154,104.802c4.464,0.451,18.078,0.262,19.935-0.337
			C1281.604,1242.491,1281.604,1231.488,1281.604,1220.344z M1148.148,1238.712c4.974,4.055,10.104,7.273,15.646,9.816
			c11.625,5.334,23.836,7.545,36.606,6.852c6.773-0.367,13.328-1.636,19.48-4.53c14.362-6.754,19.574-19.395,16.99-33.258
			c-1.293-6.936-5.497-11.932-11.367-15.633c-5.399-3.404-11.337-5.523-17.454-7.143c-6.406-1.697-12.873-3.165-19.289-4.824
			c-3.641-0.942-7.13-2.297-10.409-4.199c-6.94-4.025-6.663-13.588-0.965-17.861c2.219-1.664,4.67-2.746,7.342-3.382
			c4.583-1.092,9.202-0.986,13.811-0.278c8.199,1.258,15.597,4.564,22.539,8.997c0.651,0.416,1.324,0.797,2.114,1.271
			c3.659-4.713,7.219-9.299,10.858-13.987c-3.55-2.648-7.116-4.749-10.856-6.569c-9.905-4.822-20.453-6.73-31.372-6.673
			c-7.999,0.042-15.75,1.468-22.903,5.28c-11.447,6.101-17.65,16.389-15.823,30.341c1.011,7.726,5.059,13.491,11.65,17.544
			c4.185,2.572,8.687,4.459,13.396,5.744c6.468,1.765,13.015,3.239,19.515,4.889c4.88,1.238,9.685,2.653,14.126,5.16
			c7.202,4.065,6.616,13.964,1.229,18.125c-2.189,1.691-4.593,2.887-7.252,3.582c-6.241,1.629-12.528,1.347-18.793,0.25
			c-9.264-1.621-17.335-5.885-24.781-11.469c-0.564-0.423-1.143-0.827-1.818-1.313
			C1156.301,1229.856,1152.304,1234.198,1148.148,1238.712z M1725.611,1238.715c5.518,4.476,11.299,7.985,17.572,10.684
			c9.219,3.965,18.881,5.922,28.887,6.127c7.807,0.16,15.479-0.737,22.816-3.613c11.997-4.702,20.59-14.328,20.052-29.274
			c-0.304-8.434-3.784-15.047-10.728-19.846c-4.655-3.217-9.798-5.426-15.198-6.938c-6.456-1.808-13.009-3.268-19.504-4.941
			c-4.644-1.196-9.21-2.594-13.442-4.961c-7.301-4.083-7.107-14.2-0.655-18.376c1.654-1.07,3.487-1.968,5.357-2.582
			c5.048-1.658,10.234-1.48,15.413-0.686c7.956,1.221,15.132,4.43,21.897,8.669c0.798,0.5,1.6,0.993,2.559,1.587
			c3.669-4.72,7.232-9.304,10.887-14.004c-3.643-2.736-7.333-4.937-11.244-6.762c-12.199-5.694-25.043-7.479-38.338-5.97
			c-7.155,0.813-13.857,3.117-19.782,7.361c-11.21,8.031-14.14,20.565-10.351,32.792c2.016,6.502,6.809,10.662,12.644,13.762
			c5.186,2.755,10.732,4.543,16.392,5.98c5.959,1.514,11.972,2.822,17.92,4.377c3.863,1.01,7.609,2.366,11.036,4.531
			c6.354,4.014,5.904,12.782,1.603,16.886c-2.325,2.218-5.062,3.594-8.106,4.443c-5.099,1.421-10.292,1.331-15.475,0.765
			c-9.521-1.04-18.003-4.771-25.769-10.26c-1.366-0.965-2.714-1.954-4.209-3.032
			C1733.802,1229.825,1729.803,1234.165,1725.611,1238.715z M1337.068,1060.874c-0.497,0-1.444,0-2.392,0
			c-38.238,0-76.476-0.022-114.714,0.042c-3.235,0.005-5.833-1.087-8.414-2.88c-2.338-1.626-2.835-3.581-2.271-6.19
			c3.006-13.899,5.963-27.81,8.924-41.719c0.365-1.715,1.209-3.583,0.826-5.132c-0.405-1.639-1.951-3.031-3.112-4.437
			c-0.841-1.018-1.558-1.994-0.993-3.434c-34.303,0-68.415,0-102.521,0c-0.196,0.775-0.371,1.389-0.505,2.011
			c-4.671,21.714-9.335,43.43-14.006,65.145c-0.698,3.242-0.842,6.5-0.241,9.764c1.455,7.891,5.518,14.413,10.829,20.23
			c2.259,2.474,4.673,4.808,7.048,7.174c1.018,1.015,2.072,2.003,3.185,2.913c7.608,6.217,16.029,9.544,26.164,9.509
			c61.356-0.214,122.714-0.107,184.071-0.107c0.72,0,1.441,0.029,2.159-0.011c0.532-0.03,1.058-0.151,1.535-0.223
			c0.133-0.369,0.241-0.585,0.29-0.813c2.763-12.972,5.357-25.984,8.383-38.895c0.876-3.738,0.617-6.574-2.189-9.239
			C1338.24,1063.742,1337.867,1062.364,1337.068,1060.874z M1099.508,987.225c0.605-2.749,0.769-5.267,0.484-7.828
			c-0.924-8.336-4.331-15.638-9.222-22.335c-0.75-1.028-1.46-2.09-2.122-3.177c-3.437-5.646-7.564-10.711-12.691-14.904
			c-3.927-3.211-8.294-5.321-13.542-5.32c-65.344,0.021-130.689,0.012-196.034,0.024c-1.113,0-2.236,0.094-3.338,0.26
			c-5.163,0.779-9.71,3.084-14.099,5.77c-5.756,3.521-11.014,7.694-15.832,12.397c-6.319,6.169-11.996,12.867-16.137,20.737
			c-1.336,2.539-2.517,5.151-2.994,8.228c1.544-0.126,2.369,0.787,3.121,1.856c0.551,0.784,1.271,1.455,1.771,2.266
			c0.986,1.595,2.31,2.069,4.192,2.068c91.258-0.046,182.517-0.041,273.775-0.041
			C1097.708,987.225,1098.572,987.225,1099.508,987.225z M2266.446,986.766c0.08-0.435,0.179-0.735,0.185-1.037
			c0.176-8.737-1.115-17.274-4.529-25.305c-2.851-6.703-6.975-12.756-11.539-18.423c-4.642-5.763-10.817-8.37-18.287-8.359
			c-44.314,0.066-88.628,0.033-132.942,0.033c-26.236,0-52.473,0-78.71,0c-0.932,0-1.863,0-2.862,0
			c-3.417,15.792-6.77,31.294-10.021,46.317c1.197,1.008,2.072,1.625,2.795,2.386c0.824,0.866,1.598,1.805,2.239,2.812
			c0.878,1.377,2.044,1.718,3.627,1.717c82.549-0.035,165.098-0.03,247.647-0.035
			C2264.829,986.872,2265.608,986.804,2266.446,986.766z M1996.784,933.674c-1.258,0-2.293,0-3.329,0
			c-63.015,0-126.03,0.011-189.045-0.023c-4.304-0.002-8.421,0.747-12.429,2.214c-10.054,3.682-18.808,9.469-26.664,16.658
			c-6.108,5.589-11.501,11.784-15.474,19.107c-1.591,2.933-2.872,5.996-3.521,9.54c1.595-0.298,2.333,0.629,3.062,1.613
			c0.618,0.834,1.383,1.572,1.921,2.452c0.99,1.618,2.347,2.028,4.206,2.027c77.729-0.044,155.458-0.038,233.187-0.038
			c0.869,0,1.737,0,2.712,0c0.242-1.03,0.457-1.873,0.637-2.722c2.657-12.585,5.314-25.171,7.959-37.759
			c0.36-1.714,1.187-3.569,0.822-5.131c-0.365-1.562-1.909-2.874-3.021-4.226C1996.931,936.322,1996.095,935.303,1996.784,933.674z
			 M542.548,979.985c1.203,1.025,2.11,1.705,2.902,2.5c0.673,0.676,1.309,1.428,1.791,2.248c1.062,1.808,2.575,2.188,4.604,2.187
			c80.789-0.05,161.579-0.043,242.368-0.043c0.4,0,0.801,0.021,1.199-0.005c0.613-0.041,1.224-0.115,1.962-0.187
			c0-1.429,0.05-2.705-0.009-3.975c-0.264-5.69-1.156-11.292-2.71-16.766c-2.72-9.583-8.472-17.444-14.514-25.121
			c-0.489-0.621-1.148-1.108-1.737-1.648c-4.085-3.749-8.967-5.487-14.446-5.488c-69.75-0.018-139.501-0.012-209.252-0.007
			c-0.696,0-1.393,0.075-2.153,0.119C549.174,949.394,545.826,964.85,542.548,979.985z M788.821,1166.175
			c12.201,0,24.165,0,36.365,0c0,29.319,0,58.396,0,87.609c6.913,0,13.583,0,20.533,0c0-4.983,0-9.84,0-14.697
			c0-4.879,0-9.758,0-14.638c0-4.799,0-9.598,0-14.398c0-4.879,0-9.758,0-14.638c0-4.879-0.006-9.758,0.002-14.638
			c0.007-4.839-0.035-9.68,0.031-14.765c12.309,0,24.264,0,36.307,0c0-5.812,0-11.366,0-17.064c-31.126,0-62.112,0-93.237,0
			C788.821,1154.641,788.821,1160.196,788.821,1166.175z M1657.565,1253.561c2.65,0.564,18.7,0.477,20.554-0.102
			c0-9.625,0-19.295,0-28.965c0-9.758,0-19.517,0-29.276c0-9.642-0.003-19.283,0.003-29.174c12.313,0,24.27,0,36.479,0
			c-0.061-5.865,0.145-11.477-0.136-17.05c-5.173-0.54-91.553-0.3-93.208,0.218c0,5.573,0,11.134,0,16.932
			c12.138,0,24.104,0,36.309,0C1657.565,1195.459,1657.565,1224.537,1657.565,1253.561z M1730.076,987.117
			c0.167-0.586,0.324-1.028,0.42-1.483c2.738-12.981,5.305-26.003,8.305-38.923c0.887-3.82,0.648-6.797-2.308-9.413
			c-1.046-0.925-1.571-2.088-1.146-3.518c-0.459-0.05-0.694-0.098-0.93-0.098c-43.918-0.004-87.837,0.002-131.755-0.044
			c-1.343-0.001-2,0.564-2.685,1.534c-10.432,14.759-20.888,29.5-31.331,44.251c-0.34,0.479-0.597,1.019-1.064,1.829
			c1.904-0.41,2.87,0.405,3.685,1.622c0.621,0.927,1.46,1.71,2.064,2.646c0.877,1.36,2.031,1.739,3.627,1.738
			c50.238-0.039,100.476-0.031,150.714-0.036C1728.456,987.221,1729.239,987.154,1730.076,987.117z M1520.852,933.788
			c-45.089,0-89.922,0-134.902,0c-3.388,15.743-6.759,31.409-10.04,46.655c1.188,0.961,2.148,1.69,3.048,2.486
			c0.413,0.365,0.703,0.869,1.06,1.299c3.036,3.659,1.491,2.98,6.343,2.984c36.547,0.024,73.093,0.013,109.64,0.013
			c13.675,0,27.351,0.002,41.025-0.004c0.916-0.001,1.833-0.066,2.801-0.104c-0.07-0.531-0.066-0.77-0.135-0.986
			c-4.646-14.446-9.293-28.891-13.968-43.328c-0.239-0.739-0.624-1.475-1.104-2.084
			C1522.961,938.615,1520.661,936.905,1520.852,933.788z M1115.682,981.053c1.634-0.102,2.506,0.877,3.312,1.996
			c0.607,0.842,1.375,1.576,1.918,2.454c0.859,1.387,2.018,1.755,3.613,1.753c32.06-0.042,64.12-0.03,96.179-0.036
			c0.777,0,1.555-0.078,2.359-0.121c0.176-0.507,0.346-0.867,0.426-1.246c2.759-13.122,5.318-26.29,8.382-39.34
			c0.896-3.817,0.414-6.611-2.354-9.16c-1.048-0.965-1.524-2.15-1.2-3.564c-7.717-0.51-100.591-0.259-102.527,0.284
			C1122.44,949.646,1119.082,965.252,1115.682,981.053z"/>
		<path fill-rule="evenodd" clip-rule="evenodd" d="M1539.979,997.133c-0.182,2.937,1.911,4.591,3.472,6.584
			c0.663,0.847,1.052,1.93,1.458,2.948c0.352,0.88,0.551,1.821,0.906,3.04c0.561-0.611,1.008-1.017,1.358-1.493
			c2.368-3.222,4.769-6.421,7.04-9.711c0.828-1.2,1.757-1.748,3.175-1.552c0.393,0.054,0.799,0.008,1.199,0.008
			c52.951,0,105.902,0,158.853,0c1.034,0,2.066,0,3.369,0c-0.584,2.142,0.754,3.413,1.957,4.567
			c2.219,2.127,2.408,4.388,1.771,7.329c-5.983,27.639-11.807,55.312-17.68,82.975c-1.426,6.72-2.859,13.438-4.298,20.155
			c-0.115,0.537-0.305,1.058-0.518,1.781c-0.898,0-1.764,0-2.63,0c-31.834,0-63.669-0.02-95.503,0.047
			c-1.981,0.004-3.357-0.488-4.366-2.174c-0.448-0.748-1.012-1.457-1.644-2.057c-0.863-0.819-1.841-1.517-3.084-2.521
			c3.392-15.765,6.874-31.951,10.356-48.139c-0.133-0.062-0.267-0.125-0.4-0.188c-0.627,0.696-1.27,1.379-1.879,2.09
			c-14.558,17.011-29.126,34.014-43.64,51.062c-1.129,1.327-2.236,1.932-4.036,1.924c-18.077-0.073-36.154-0.068-54.23-0.007
			c-1.698,0.006-2.875-0.446-3.803-1.854c-0.702-1.064-1.566-2.022-2.382-3.008c-0.3-0.363-0.666-0.95-1.007-0.955
			c-1.772-0.021-1.921-1.462-2.38-2.58c-7.091-17.299-14.16-34.607-21.242-51.911c-0.347-0.848-0.767-1.666-1.61-2.473
			c-4.406,20.826-8.812,41.652-13.272,62.742c-0.915,0-1.775,0-2.636,0c-31.995,0-63.989-0.013-95.983,0.037
			c-1.692,0.002-2.894-0.393-3.798-1.849c-0.587-0.945-1.31-1.828-2.093-2.62c-0.729-0.738-1.618-1.318-2.864-2.308
			c7.754-36.226,15.621-72.979,23.522-109.89C1427.512,997.133,1483.542,997.133,1539.979,997.133z M1614.939,1029.121
			c-4.765,24.892-10.091,49.572-15.235,74.41c31.754,0,63.154,0,94.62,0c7.272-34.178,14.518-68.224,21.801-102.453
			c-1.007-0.048-1.713-0.111-2.418-0.111c-51.513-0.005-103.026,0.005-154.539-0.046c-1.669-0.001-2.601,0.588-3.491,1.895
			c-3.554,5.222-7.2,10.381-10.819,15.558c-0.484,0.692-1.013,1.354-1.756,2.342c-2.297-6.82-4.472-13.277-6.606-19.615
			c-54.114,0-107.917,0-161.931,0c-7.254,34.175-14.558,68.247-21.769,102.405c31.742,0,63.133,0,94.618,0
			c1.858-8.737,3.693-17.321,5.51-25.91c1.802-8.519,3.548-17.05,5.388-25.561c1.842-8.516,3.496-17.076,5.495-25.557
			c0.16,0.004,0.321,0.008,0.481,0.012c10.49,25.717,20.979,51.435,31.485,77.193c1.17,0,2.125,0,3.079,0
			c16.158,0,32.316,0,48.474,0c3.93,0,3.923-0.006,6.42-2.936c19.814-23.25,39.63-46.498,59.451-69.742
			C1613.753,1030.355,1614.358,1029.748,1614.939,1029.121z"/>
		<path fill-rule="evenodd" clip-rule="evenodd" d="M519.767,1148.907c0.868-0.039,1.573-0.098,2.278-0.099
			c5.68-0.008,11.36,0.057,17.038-0.044c1.563-0.027,2.458,0.517,3.332,1.759c10.712,15.244,21.476,30.452,32.23,45.667
			c0.457,0.647,0.947,1.271,1.554,2.083c0.517-0.661,0.961-1.181,1.354-1.737c10.808-15.275,21.63-30.539,32.379-45.854
			c0.993-1.414,2.034-1.944,3.733-1.914c5.518,0.098,11.038,0.037,16.558,0.037c0.78,0,1.56,0,2.498,0c0,35.082,0,69.922,0,104.94
			c-6.64,0-13.229,0-20.11,0c0-24.667,0-49.323,0-73.98c-0.187-0.067-0.373-0.134-0.56-0.2
			c-11.939,16.226-23.879,32.453-36.038,48.979c-3.454-4.103-6.238-8.253-9.21-12.254c-3.004-4.044-5.968-8.12-8.946-12.184
			c-2.979-4.063-5.949-8.133-8.93-12.194c-2.963-4.037-5.935-8.067-8.902-12.1c-0.159,0.047-0.318,0.094-0.478,0.142
			c0,24.562,0,49.125,0,73.828c-6.729,0-13.171,0-19.781,0C519.767,1218.824,519.767,1183.924,519.767,1148.907z"/>
		<path fill-rule="evenodd" clip-rule="evenodd" d="M1981.426,997.382c0.6,1.246,0.944,2.198,1.484,3.021
			c0.654,0.999,1.367,2.009,2.248,2.799c1.418,1.272,1.318,2.689,0.959,4.339c-2.871,13.191-5.692,26.393-8.534,39.591
			c-0.182,0.845-0.411,1.681-0.65,2.656c-45.792,0-91.522,0-137.192,0c-1.25,3.318-0.222,6.946,2.393,8.813
			c2.006,1.433,4.231,2.225,6.707,2.266c1.039,0.017,2.079,0.006,3.119,0.006c37.831,0,75.662,0,113.492,0c0.951,0,1.902,0,2.425,0
			c0.722,1.404,1.26,2.491,1.84,3.555c0.188,0.346,0.45,0.674,0.743,0.938c2.246,2.018,2.578,4.292,1.897,7.284
			c-3.034,13.318-5.794,26.699-8.654,40.057c-0.05,0.233-0.119,0.463-0.241,0.928c-0.711,0.04-1.486,0.122-2.261,0.122
			c-63.345,0.006-126.689-0.002-190.034,0.018c-5.768,0.001-11.014-1.68-15.933-4.548c-4.523-2.637-8.499-5.96-12.103-9.749
			c-3.191-3.354-6.68-6.436-9.275-10.333c-2.991-4.491-5.485-9.189-6.492-14.562c-0.672-3.587-0.553-7.153,0.201-10.71
			c4.671-22.035,9.34-44.071,14-66.064c0.098-0.089,0.154-0.145,0.215-0.195s0.12-0.119,0.191-0.138
			c0.23-0.061,0.466-0.145,0.699-0.145c79.26-0.012,158.521-0.017,237.781-0.019
			C1980.842,997.313,1981.233,997.368,1981.426,997.382z M1963.951,1064.803c-1.382,0-2.399,0-3.417,0
			c-37.19,0-74.381-0.019-111.571,0.032c-3.462,0.005-6.44-1.023-9.095-3.111c-4.93-3.877-7.788-9.042-9.005-15.113
			c-0.441-2.198-0.21-4.438,0.794-6.729c45.74,0,91.461,0,137.091,0c1.187-2.795,8.38-36.703,8.194-38.478
			c-77.225,0-154.454,0-231.782,0c-0.202,0.778-0.405,1.455-0.553,2.144c-4.42,20.538-8.811,41.083-13.269,61.613
			c-1.044,4.809-0.468,9.371,1.547,13.794c4.407,9.673,11.417,16.875,20.855,21.697c3.813,1.949,7.86,3.047,12.205,3.046
			c62.384-0.02,124.769-0.014,187.152-0.014c0.782,0,1.563,0,2.489,0C1958.379,1090.701,1961.127,1077.926,1963.951,1064.803z"/>
		<path fill-rule="evenodd" clip-rule="evenodd" d="M1071.54,1113.763c-1.021,0-1.889,0-2.756,0
			c-31.835,0-63.671-0.014-95.507,0.036c-1.84,0.003-3.229-0.347-4.211-2.001c-0.525-0.886-1.214-1.7-1.943-2.432
			c-0.733-0.737-1.607-1.333-2.857-2.345c3.708-18.021,7.85-36.513,11.721-55.228c-23.368,0-46.455,0-69.707,0
			c-4.385,20.609-8.753,41.142-13.159,61.85c-0.835,0.042-1.613,0.115-2.392,0.115c-31.996,0.006-63.991-0.003-95.986,0.03
			c-1.554,0.002-2.767-0.251-3.637-1.685c-0.617-1.017-1.409-1.952-2.246-2.803c-0.721-0.733-1.615-1.295-2.846-2.255
			c7.762-36.26,15.63-73.015,23.529-109.914c93.573,0,187.039,0,280.68,0c-0.347,1.305,0.122,2.374,1.038,3.338
			c0.768,0.809,1.34,1.809,2.132,2.589c1.182,1.164,1.209,2.447,0.889,3.955c-7.366,34.616-14.704,69.238-22.051,103.858
			C1072.05,1111.725,1071.826,1112.569,1071.54,1113.763z M812.683,1001.048c-7.285,34.234-14.529,68.274-21.812,102.496
			c31.583,0,62.891,0,94.347,0c4.389-20.627,8.756-41.151,13.139-61.752c27.972,0,55.773,0,83.827,0
			c-4.377,20.625-8.726,41.118-13.107,61.764c31.704,0,63.104,0,94.502,0c0.183-0.573,0.368-1.02,0.467-1.485
			c7.081-33.284,14.156-66.569,21.225-99.856c0.048-0.227,0.008-0.473-0.005-0.71c-0.004-0.076-0.043-0.157-0.087-0.221
			c-0.041-0.06-0.11-0.1-0.266-0.235C994.332,1001.048,903.652,1001.048,812.683,1001.048z"/>
		<path fill-rule="evenodd" clip-rule="evenodd" d="M1056.378,1217.353c0,12.283,0,24.253,0,36.396c-6.856,0-13.517,0-20.317,0
			c0-34.932,0-69.767,0-104.782c0.761-0.058,1.453-0.156,2.146-0.156c16.478-0.009,32.957-0.084,49.435,0.026
			c8.367,0.056,16.551,1.283,24.267,4.834c13.138,6.046,19.017,17.621,18.194,30.948c-0.808,13.111-7.889,21.741-19.579,26.957
			c-2.308,1.029-4.725,1.813-7.37,2.816c10.187,13.055,20.304,26.021,30.583,39.193c-0.599,0.142-1.009,0.322-1.42,0.323
			c-6.959,0.018-13.919-0.038-20.877,0.055c-1.46,0.02-2.149-0.729-2.898-1.699c-8.401-10.891-16.844-21.751-25.195-32.681
			c-1.221-1.599-2.439-2.345-4.548-2.292c-6.556,0.165-13.117,0.061-19.677,0.061
			C1058.332,1217.353,1057.543,1217.353,1056.378,1217.353z M1056.503,1200.766c0.513,0.094,0.742,0.173,0.972,0.173
			c10.146,0.009,20.292,0.125,30.434-0.036c4.907-0.077,9.665-1.193,13.918-3.852c5.615-3.51,8.088-8.636,7.667-15.185
			c-0.408-6.343-3.686-10.74-9.361-13.403c-3.29-1.544-6.805-2.419-10.416-2.469c-10.7-0.149-21.402-0.144-32.104-0.184
			c-0.363-0.001-0.727,0.16-1.109,0.25C1056.503,1177.678,1056.503,1189.156,1056.503,1200.766z"/>
		<path fill-rule="evenodd" clip-rule="evenodd" d="M1576.919,1214.29c5.288,6.775,10.346,13.254,15.403,19.734
			c5.049,6.471,10.095,12.942,15.396,19.739c-0.996,0.072-1.592,0.153-2.189,0.154c-6.637,0.009-13.274-0.034-19.911,0.037
			c-1.437,0.016-2.32-0.483-3.18-1.602c-8.621-11.221-17.293-22.402-25.953-33.593c-0.341-0.44-0.699-0.868-1.042-1.294
			c-8.33,0-16.622,0-25.191,0c0,12.134,0,24.158,0,36.318c-6.879,0-13.48,0-20.248,0c0-34.951,0-69.842,0-104.98
			c0.929,0,1.708,0,2.486,0c16.233,0,32.466-0.058,48.698,0.026c7.546,0.039,14.989,0.962,22.078,3.773
			c7.767,3.08,14.278,7.761,17.674,15.624c5.14,11.897,4.452,23.417-3.649,33.902c-4.174,5.402-10.011,8.595-16.373,10.845
			C1579.723,1213.396,1578.509,1213.769,1576.919,1214.29z M1530.382,1200.816c0.531,0.056,0.915,0.131,1.297,0.132
			c10,0.006,20.001,0.101,30-0.038c4.587-0.063,9.048-1.076,13.123-3.341c7.106-3.95,10.181-11.365,7.968-19.202
			c-1.548-5.484-5.396-8.697-10.546-10.616c-4.109-1.53-8.391-1.951-12.728-1.961c-8.8-0.02-17.6-0.006-26.4-0.006
			c-0.857,0-1.715,0-2.714,0C1530.382,1177.556,1530.382,1189.046,1530.382,1200.816z"/>
		<path fill-rule="evenodd" clip-rule="evenodd" d="M717.813,1147.197c13.261-0.033,25.652,3.111,36.688,10.671
			c12.103,8.292,19.957,19.596,22.396,34.117c2.925,17.416-1.667,32.814-14.007,45.625c-10.186,10.576-22.885,16.058-37.333,17.701
			c-11.215,1.275-22.205,0.229-32.76-3.903c-15.791-6.183-27.215-16.883-32.778-33.119c-7.648-22.319,0.587-46.425,20.263-60.029
			c10.348-7.155,21.899-10.633,34.418-11.058C715.736,1147.167,716.775,1147.197,717.813,1147.197z M718.464,1238.593
			c1.319-0.125,3.557-0.25,5.768-0.559c17.452-2.438,30.375-15.662,31.913-32.427c1.312-14.306-3.75-25.986-15.485-34.309
			c-10.562-7.49-22.476-9.051-34.798-5.616c-29.505,8.225-35.185,43.273-16.527,61.632
			C697.164,1235.019,706.719,1238.384,718.464,1238.593z"/>
		<path fill-rule="evenodd" clip-rule="evenodd" d="M1425.394,1146.828c12.683,0.312,24.611,3.133,35.331,10.047
			c13.561,8.747,22.183,21.021,24.196,37.117c2.67,21.35-5.355,38.337-22.783,50.796c-8.766,6.267-18.742,9.5-29.437,10.588
			c-11.99,1.221-23.634-0.131-34.713-4.997c-13.513-5.936-23.811-15.368-29.148-29.288c-7.397-19.293-4.524-37.287,8.663-53.257
			c9.07-10.984,21.152-17.071,35.051-19.565C1416.784,1147.511,1421.111,1147.294,1425.394,1146.828z M1425.364,1238.561
			c4.027,0.008,7.981-0.502,11.85-1.599c15.562-4.416,26.327-17.672,26.828-33.352c0.498-15.592-6.103-27.386-19.809-34.863
			c-8.826-4.815-18.389-5.783-28.176-3.687c-29.852,6.395-38.091,40.342-20.88,60.206
			C1403.11,1234.423,1413.439,1238.368,1425.364,1238.561z"/>
		<path fill-rule="evenodd" clip-rule="evenodd" d="M950.157,1147.081c15.962,0.105,29.394,3.794,41.023,12.826
			c11.384,8.841,18.335,20.438,20.018,34.788c1.937,16.512-2.853,30.995-14.498,42.996c-10.224,10.537-22.914,16.022-37.366,17.629
			c-12.561,1.397-24.757-0.073-36.285-5.432c-14.65-6.809-24.99-17.671-29.699-33.297c-6.549-21.734,1.509-44.576,20.114-57.847
			c8.709-6.212,18.427-9.805,29.019-11.052C945.495,1147.337,948.532,1147.206,950.157,1147.081z M952.266,1238.607
			c1.454-0.139,3.61-0.266,5.744-0.56c19.385-2.667,32.722-18.454,32.23-37.117c-0.327-12.429-5.457-22.448-15.604-29.586
			c-10.514-7.396-22.284-9.033-34.562-5.753c-27.5,7.347-35.043,38.62-20.076,58.03
			C927.939,1233.923,938.8,1238.315,952.266,1238.607z"/>
		<path fill-rule="evenodd" clip-rule="evenodd" d="M2256.547,1113.642c-1.226,0.054-1.992,0.117-2.76,0.117
			c-32.713,0.005-65.426-0.011-98.139,0.045c-1.783,0.003-2.903-0.603-4.093-1.864c-17.071-18.079-32.551-37.542-48.958-56.197
			c-0.733-0.834-1.467-1.667-2.538-2.883c-1.75,6.958-2.969,13.64-4.395,20.271c-1.462,6.796-2.878,13.601-4.315,20.402
			c-1.416,6.7-2.833,13.4-4.276,20.229c-1.097,0-1.967,0-2.838,0c-31.833,0-63.667-0.015-95.5,0.039
			c-1.854,0.003-3.223-0.391-4.19-2.029c-0.443-0.75-1.019-1.45-1.649-2.053c-0.921-0.88-1.944-1.654-3.194-2.698
			c7.668-36.175,15.434-72.808,23.227-109.57c0.843-0.055,1.54-0.136,2.238-0.14c13.274-0.068,26.548-0.165,39.821-0.179
			c25.115-0.028,50.229,0.003,75.344-0.011c35.832-0.02,71.663-0.054,107.495-0.089c8.797-0.009,17.595-0.049,26.392-0.074
			c0.865-0.002,1.731,0,2.888,0c-0.977,1.814,0.018,2.85,0.984,3.933c1.113,1.246,2.165,2.545,3.354,3.952
			c-1.036,2.206-1.979,4.398-3.074,6.511c-6.278,12.101-14.496,22.583-25.773,30.442c-6.034,4.207-12.57,7.292-19.953,8.28
			c-1.581,0.211-3.179,0.295-4.881,0.447c-0.119,1.085,0.794,1.648,1.337,2.328c9.43,11.812,18.893,23.598,28.345,35.393
			c4.501,5.617,9.014,11.223,13.469,16.875c0.717,0.909,1.998,1.595,1.548,3.19c-0.094,0.331,0.586,0.892,0.93,1.332
			C2254.355,1110.872,2255.327,1112.097,2256.547,1113.642z M2194.142,1041.036c0.087-0.177,0.174-0.354,0.261-0.53
			c2.312,0,4.625,0,6.938,0c6.75-0.003,13.147-1.462,19.156-4.587c14.225-7.396,23.876-18.978,30.533-33.306
			c0.159-0.343,0.194-0.744,0.313-1.222c-81.699,0-163.264,0-244.98,0c-7.265,34.041-14.514,68.003-21.803,102.156
			c31.693,0,63.091,0,94.635,0c2.259-10.535,4.508-20.986,6.739-31.441c2.243-10.508,4.413-21.033,6.775-31.617
			c3.128,0.747,5.153,2.574,6.914,4.626c16.192,18.878,32.349,37.785,48.467,56.726c1.14,1.339,2.275,1.894,4.058,1.886
			c15.918-0.073,31.836-0.043,47.754-0.043c13.838,0,27.677,0.006,41.515-0.014c0.808-0.001,1.714,0.274,2.527-0.441
			C2227.299,1082.441,2210.721,1061.738,2194.142,1041.036z"/>
		<path fill-rule="evenodd" clip-rule="evenodd" d="M1280.604,1220.344c0,11.144,0,22.146,0,33.083
			c-1.857,0.6-15.471,0.788-19.935,0.337c-0.526-1.654-0.701-101.4-0.154-104.802c0.64-0.05,1.327-0.151,2.015-0.152
			c14.472-0.009,28.944-0.091,43.415,0.025c8.532,0.068,16.884,1.321,24.649,5.164c9.244,4.575,15.775,11.574,17.875,21.825
			c2.875,14.034-0.397,26.192-12.303,35.151c-4.856,3.654-10.396,5.899-16.269,7.349c-5.22,1.29-10.521,1.923-15.901,1.911
			c-6.956-0.016-13.912-0.007-20.868,0.001C1282.35,1220.238,1281.571,1220.301,1280.604,1220.344z M1280.686,1203.434
			c0.9,0,1.679,0,2.458,0c7.276,0,14.552-0.018,21.828,0.008c3.389,0.012,6.695-0.512,9.909-1.524
			c7.568-2.383,14.49-8.296,13.868-18.573c-0.38-6.279-3.19-10.936-8.625-14.015c-3.902-2.21-8.176-3.281-12.612-3.367
			c-8.551-0.166-17.105-0.126-25.659-0.16c-0.371-0.002-0.743,0.118-1.166,0.19
			C1280.686,1178.49,1280.686,1190.842,1280.686,1203.434z"/>
		<path fill-rule="evenodd" clip-rule="evenodd" d="M1147.148,1238.712c4.156-4.514,8.153-8.855,12.22-13.272
			c0.675,0.486,1.254,0.89,1.818,1.313c7.446,5.584,15.517,9.848,24.781,11.469c6.266,1.097,12.552,1.379,18.793-0.25
			c2.659-0.694,5.062-1.89,7.252-3.582c5.386-4.161,5.973-14.06-1.229-18.125c-4.442-2.506-9.247-3.921-14.126-5.16
			c-6.5-1.649-13.047-3.124-19.515-4.889c-4.709-1.285-9.211-3.171-13.396-5.744c-6.591-4.053-10.639-9.818-11.65-17.544
			c-1.827-13.952,4.376-24.24,15.823-30.341c7.153-3.812,14.904-5.239,22.903-5.28c10.919-0.057,21.467,1.852,31.372,6.673
			c3.74,1.82,7.307,3.921,10.856,6.569c-3.639,4.688-7.199,9.274-10.858,13.987c-0.79-0.474-1.462-0.855-2.114-1.271
			c-6.941-4.432-14.34-7.738-22.539-8.997c-4.609-0.708-9.228-0.813-13.811,0.278c-2.672,0.637-5.124,1.718-7.342,3.382
			c-5.698,4.273-5.975,13.836,0.965,17.861c3.279,1.902,6.769,3.257,10.409,4.199c6.416,1.66,12.883,3.127,19.289,4.824
			c6.116,1.62,12.054,3.739,17.454,7.143c5.87,3.701,10.074,8.697,11.367,15.633c2.584,13.863-2.628,26.504-16.99,33.258
			c-6.153,2.894-12.707,4.163-19.48,4.53c-12.77,0.693-24.981-1.518-36.606-6.852
			C1157.252,1245.985,1152.122,1242.767,1147.148,1238.712z"/>
		<path fill-rule="evenodd" clip-rule="evenodd" d="M1724.611,1238.715c4.192-4.55,8.19-8.89,12.234-13.28
			c1.495,1.078,2.843,2.066,4.209,3.032c7.766,5.489,16.249,9.22,25.769,10.26c5.183,0.566,10.376,0.656,15.475-0.765
			c3.044-0.849,5.781-2.225,8.106-4.443c4.301-4.104,4.751-12.872-1.603-16.886c-3.426-2.165-7.173-3.521-11.036-4.531
			c-5.948-1.555-11.96-2.863-17.92-4.377c-5.66-1.438-11.207-3.225-16.392-5.98c-5.835-3.1-10.628-7.259-12.644-13.762
			c-3.789-12.227-0.859-24.761,10.351-32.792c5.925-4.245,12.627-6.548,19.782-7.361c13.295-1.51,26.139,0.275,38.338,5.97
			c3.911,1.825,7.601,4.025,11.244,6.762c-3.655,4.7-7.217,9.284-10.887,14.004c-0.958-0.595-1.761-1.088-2.559-1.587
			c-6.765-4.24-13.941-7.449-21.897-8.669c-5.179-0.794-10.365-0.973-15.413,0.686c-1.87,0.614-3.703,1.512-5.357,2.582
			c-6.452,4.177-6.646,14.293,0.655,18.376c4.232,2.367,8.799,3.765,13.442,4.961c6.495,1.673,13.048,3.133,19.504,4.941
			c5.399,1.512,10.543,3.72,15.198,6.938c6.944,4.799,10.424,11.412,10.728,19.846c0.538,14.946-8.055,24.572-20.052,29.274
			c-7.338,2.876-15.009,3.773-22.816,3.613c-10.006-0.205-19.668-2.162-28.887-6.127
			C1735.91,1246.7,1730.129,1243.191,1724.611,1238.715z"/>
		<path fill-rule="evenodd" clip-rule="evenodd" d="M1336.068,1060.874c0.799,1.49,1.172,2.868,2.056,3.707
			c2.807,2.666,3.066,5.501,2.189,9.239c-3.026,12.91-5.62,25.922-8.383,38.895c-0.048,0.229-0.156,0.445-0.29,0.813
			c-0.477,0.072-1.003,0.193-1.535,0.223c-0.718,0.041-1.439,0.011-2.159,0.011c-61.357,0-122.714-0.107-184.071,0.107
			c-10.134,0.035-18.555-3.292-26.164-9.509c-1.113-0.909-2.167-1.898-3.185-2.913c-2.375-2.366-4.789-4.7-7.048-7.174
			c-5.312-5.818-9.374-12.339-10.829-20.23c-0.602-3.264-0.457-6.522,0.241-9.764c4.671-21.714,9.335-43.43,14.006-65.145
			c0.134-0.622,0.309-1.236,0.505-2.011c34.105,0,68.217,0,102.521,0c-0.564,1.44,0.152,2.416,0.993,3.434
			c1.161,1.406,2.707,2.798,3.112,4.437c0.383,1.549-0.461,3.417-0.826,5.132c-2.961,13.909-5.918,27.82-8.924,41.719
			c-0.564,2.609-0.067,4.564,2.271,6.19c2.58,1.793,5.178,2.886,8.414,2.88c38.238-0.064,76.476-0.042,114.714-0.042
			C1334.624,1060.874,1335.571,1060.874,1336.068,1060.874z M1209.089,1001.092c-31.647,0-63.039,0-94.512,0
			c-0.188,0.709-0.377,1.313-0.509,1.929c-4.426,20.616-8.812,41.241-13.292,61.844c-1.102,5.069-0.479,9.835,1.715,14.46
			c4.518,9.524,11.598,16.552,20.942,21.324c3.891,1.987,8.003,3.06,12.438,3.057c61.738-0.033,123.476-0.022,185.213-0.022
			c0.865,0,1.73,0,2.708,0c2.795-12.988,5.546-25.766,8.369-38.881c-1.171,0-2.025,0-2.878,0c-14.235,0-28.47,0-42.705,0
			c-23.032,0-46.063-0.008-69.095,0.016c-1.799,0.002-3.512-0.194-5.079-1.109c-5.009-2.927-9.054-6.815-11.761-11.994
			c-1.065-2.038-1.46-4.178-0.958-6.496c2.617-12.099,5.191-24.208,7.774-36.313
			C1208.004,1006.352,1208.526,1003.792,1209.089,1001.092z"/>
		<path fill-rule="evenodd" clip-rule="evenodd" d="M1098.508,987.225c-0.936,0-1.8,0-2.664,0
			c-91.259,0-182.517-0.006-273.775,0.041c-1.882,0.001-3.207-0.473-4.192-2.068c-0.5-0.811-1.221-1.482-1.771-2.266
			c-0.752-1.069-1.576-1.983-3.121-1.856c0.477-3.077,1.658-5.689,2.994-8.228c4.141-7.87,9.818-14.567,16.137-20.737
			c4.818-4.703,10.076-8.875,15.832-12.397c4.389-2.685,8.936-4.99,14.099-5.77c1.102-0.166,2.225-0.259,3.338-0.26
			c65.345-0.012,130.689-0.003,196.034-0.024c5.247-0.001,9.614,2.108,13.542,5.32c5.127,4.193,9.254,9.258,12.691,14.904
			c0.662,1.087,1.371,2.149,2.122,3.177c4.891,6.697,8.298,14,9.222,22.335C1099.276,981.958,1099.113,984.476,1098.508,987.225z
			 M1090.481,976.996c0.641-2.061,0.825-4.649,0.329-7.007c-2.652-12.614-9.53-22.34-20.292-29.338
			c-3.443-2.239-7.307-3.062-11.409-3.061c-64.298,0.019-128.596,0.019-192.894,0.002c-4.73-0.001-9.175,1.041-13.405,3.127
			c-7.665,3.781-14.513,8.728-20.688,14.6c-4.6,4.375-8.572,9.275-11.605,14.881c-1.127,2.083-2.174,4.218-2.538,6.796
			C908.895,976.996,999.627,976.996,1090.481,976.996z"/>
		<path fill-rule="evenodd" clip-rule="evenodd" d="M2265.446,986.766c-0.838,0.039-1.617,0.106-2.396,0.106
			c-82.55,0.004-165.099,0-247.647,0.035c-1.583,0-2.749-0.34-3.627-1.717c-0.641-1.006-1.416-1.946-2.239-2.812
			c-0.723-0.761-1.598-1.378-2.795-2.386c3.25-15.023,6.604-30.526,10.021-46.317c0.999,0,1.93,0,2.862,0c26.237,0,52.474,0,78.71,0
			c44.314,0,88.628,0.033,132.942-0.033c7.47-0.011,13.645,2.597,18.287,8.359c4.564,5.667,8.688,11.72,11.539,18.423
			c3.414,8.031,4.706,16.568,4.529,25.305C2265.625,986.031,2265.526,986.331,2265.446,986.766z M2256.888,976.744
			c0.059-0.421,0.145-0.725,0.138-1.027c-0.202-8.33-1.724-16.391-5.471-23.875c-4.698-9.383-12.029-14.362-22.937-14.309
			c-36.951,0.183-73.904,0.07-110.856,0.07c-31.674,0-63.347,0-95.021,0c-0.927,0-1.853,0-2.824,0
			c-2.827,13.234-5.656,26.128-8.335,39.141C2093.555,976.744,2175.186,976.744,2256.888,976.744z"/>
		<path fill-rule="evenodd" clip-rule="evenodd" d="M1995.784,933.674c-0.688,1.628,0.147,2.647,1.024,3.713
			c1.111,1.352,2.656,2.665,3.021,4.226c0.364,1.562-0.462,3.417-0.822,5.131c-2.645,12.588-5.302,25.173-7.959,37.759
			c-0.18,0.85-0.395,1.692-0.637,2.722c-0.976,0-1.844,0-2.712,0c-77.729,0-155.458-0.006-233.187,0.038
			c-1.859,0.001-3.216-0.409-4.206-2.027c-0.538-0.88-1.303-1.618-1.921-2.452c-0.729-0.984-1.467-1.912-3.062-1.613
			c0.65-3.544,1.931-6.606,3.521-9.54c3.973-7.323,9.366-13.518,15.474-19.107c7.856-7.189,16.61-12.976,26.664-16.658
			c4.008-1.468,8.125-2.217,12.429-2.214c63.015,0.034,126.03,0.023,189.045,0.023
			C1993.49,933.674,1994.525,933.674,1995.784,933.674z M1990.953,937.603c-1.178,0-1.887,0-2.596,0
			c-61.978,0-123.955-0.007-185.932,0.028c-2.222,0.001-4.471,0.278-6.661,0.68c-5.244,0.962-10.029,3.187-14.664,5.734
			c-10.142,5.574-19.032,12.628-25.877,22.069c-1.936,2.669-3.479,5.552-4.421,8.726c-0.193,0.651-0.247,1.344-0.365,2.016
			c2.885,0.489,230.344,0.377,232.223-0.117C1985.388,963.864,1988.132,950.917,1990.953,937.603z"/>
		<path fill-rule="evenodd" clip-rule="evenodd" d="M787.821,1166.175c0-5.979,0-11.534,0-17.228c31.125,0,62.111,0,93.237,0
			c0,5.698,0,11.252,0,17.064c-12.043,0-23.998,0-36.307,0c-0.066,5.085-0.024,9.926-0.031,14.765
			c-0.008,4.879-0.002,9.759-0.002,14.638c0,4.879,0,9.759,0,14.638c0,4.8,0,9.599,0,14.398c0,4.879,0,9.759,0,14.638
			c0,4.857,0,9.713,0,14.697c-6.949,0-13.62,0-20.533,0c0-29.213,0-58.29,0-87.609
			C811.985,1166.175,800.022,1166.175,787.821,1166.175z"/>
		<path fill-rule="evenodd" clip-rule="evenodd" d="M1656.565,1253.561c0-29.024,0-58.101,0-87.417c-12.205,0-24.171,0-36.309,0
			c0-5.797,0-11.359,0-16.932c1.655-0.518,88.035-0.757,93.208-0.218c0.281,5.573,0.076,11.185,0.136,17.05
			c-12.208,0-24.166,0-36.479,0c-0.006,9.891-0.003,19.532-0.003,29.174c0,9.759,0,19.518,0,29.276c0,9.67,0,19.34,0,28.965
			C1675.266,1254.038,1659.216,1254.125,1656.565,1253.561z"/>
		<path fill-rule="evenodd" clip-rule="evenodd" d="M1729.076,987.117c-0.837,0.038-1.62,0.104-2.402,0.104
			c-50.238,0.005-100.477-0.003-150.714,0.036c-1.597,0.001-2.75-0.378-3.627-1.738c-0.604-0.936-1.444-1.719-2.064-2.646
			c-0.814-1.217-1.78-2.032-3.685-1.622c0.468-0.81,0.725-1.349,1.064-1.829c10.442-14.751,20.899-29.493,31.331-44.251
			c0.685-0.97,1.342-1.535,2.685-1.534c43.918,0.047,87.836,0.04,131.755,0.044c0.235,0,0.471,0.048,0.93,0.098
			c-0.426,1.43,0.1,2.593,1.146,3.518c2.956,2.616,3.195,5.593,2.308,9.413c-3,12.92-5.566,25.942-8.305,38.923
			C1729.4,986.088,1729.244,986.53,1729.076,987.117z M1729.658,937.603c-1.13,0-1.907,0-2.685,0
			c-41.014,0-82.027,0.01-123.042-0.037c-1.639-0.002-2.589,0.536-3.509,1.854c-8.237,11.794-16.544,23.54-24.825,35.302
			c-0.447,0.636-0.853,1.301-1.309,1.999c1.85,0.508,143.811,0.65,147.042,0.16C1724.071,963.958,1726.829,950.949,1729.658,937.603
			z"/>
		<path fill-rule="evenodd" clip-rule="evenodd" d="M1519.852,933.788c-0.19,3.117,2.11,4.828,3.768,6.932
			c0.48,0.609,0.865,1.345,1.104,2.084c4.674,14.437,9.321,28.882,13.968,43.328c0.069,0.216,0.065,0.455,0.135,0.986
			c-0.969,0.038-1.885,0.103-2.801,0.104c-13.675,0.006-27.35,0.004-41.025,0.004c-36.546,0-73.093,0.011-109.64-0.013
			c-4.853-0.003-3.307,0.675-6.343-2.984c-0.357-0.431-0.647-0.934-1.06-1.299c-0.899-0.796-1.859-1.525-3.048-2.486
			c3.281-15.247,6.652-30.912,10.04-46.655C1429.929,933.788,1474.762,933.788,1519.852,933.788z M1516.393,937.747
			c-42.938,0-85.541,0-128.303,0c-2.769,13.11-5.621,26.093-8.273,39.239c49.83,0,99.297,0,149.062,0
			C1524.674,963.772,1520.543,950.789,1516.393,937.747z"/>
		<path fill-rule="evenodd" clip-rule="evenodd" d="M1114.682,981.053c3.4-15.801,6.758-31.407,10.109-46.98
			c1.937-0.543,94.81-0.794,102.527-0.284c-0.324,1.414,0.152,2.599,1.2,3.564c2.768,2.549,3.25,5.342,2.354,9.16
			c-3.063,13.05-5.623,26.219-8.382,39.34c-0.08,0.379-0.25,0.739-0.426,1.246c-0.804,0.043-1.582,0.121-2.359,0.121
			c-32.06,0.006-64.119-0.005-96.179,0.036c-1.595,0.002-2.754-0.366-3.613-1.753c-0.543-0.877-1.312-1.612-1.918-2.454
			C1117.188,981.931,1116.315,980.951,1114.682,981.053z M1222.632,937.771c-31.759,0-63.135,0-94.66,0
			c-2.73,13.133-5.62,26.096-8.245,39.201c31.726,0,63.103,0,94.588,0C1217.092,963.883,1219.838,950.939,1222.632,937.771z"/>
		<path fill-rule="evenodd" clip-rule="evenodd" d="M635.42,1050.403c-4.521,21.182-8.987,42.105-13.491,63.205
			c-0.718,0.052-1.414,0.148-2.11,0.148c-32.314,0.007-64.628,0-96.941,0.029c-1.31,0.001-2.293-0.284-3.044-1.415
			c-0.616-0.93-1.314-1.826-2.096-2.619c-0.892-0.905-1.916-1.679-3.208-2.79c7.662-36.152,15.425-72.777,23.239-109.644
			c83.357-0.38,166.587-0.16,250.101-0.377c-0.86,1.657-0.055,2.68,0.833,3.727c1.132,1.335,2.188,2.734,3.301,4.137
			c-2.222,5.433-4.917,10.497-8.106,15.296c-6.728,10.124-14.896,18.77-25.615,24.77c-6.618,3.705-13.656,5.589-21.306,5.569
			c-32.793-0.084-65.587-0.036-98.381-0.036C637.64,1050.403,636.685,1050.403,635.42,1050.403z M782.045,1000.963
			c-1.181,0-2.109-0.001-3.038,0c-32.71,0.061-65.421,0.137-98.132,0.179c-45.67,0.058-91.34,0.091-137.01,0.135
			c-0.24,0-0.481-0.014-0.72,0.003c-0.62,0.045-1.238,0.104-1.983,0.168c-7.267,34.044-14.513,67.993-21.795,102.112
			c31.659,0,63.062,0,94.645,0c4.492-21.028,8.973-42,13.471-63.054c1.347,0,2.381,0,3.415,0c33.434,0,66.868-0.032,100.302,0.022
			c8.296,0.014,15.944-2.046,23.036-6.312c12.483-7.509,21.244-18.239,27.214-31.389
			C781.668,1002.344,781.777,1001.812,782.045,1000.963z"/>
		<path fill-rule="evenodd" clip-rule="evenodd" d="M541.548,979.985c3.278-15.135,6.626-30.591,10.004-46.187
			c0.76-0.044,1.457-0.119,2.153-0.119c69.751-0.005,139.502-0.011,209.252,0.007c5.479,0.001,10.36,1.739,14.446,5.488
			c0.589,0.54,1.249,1.028,1.737,1.648c6.042,7.676,11.793,15.538,14.514,25.121c1.554,5.474,2.446,11.076,2.71,16.766
			c0.059,1.27,0.009,2.545,0.009,3.975c-0.738,0.072-1.349,0.146-1.962,0.187c-0.398,0.026-0.799,0.005-1.199,0.005
			c-80.79,0-161.579-0.007-242.368,0.043c-2.028,0.001-3.542-0.378-4.604-2.187c-0.481-0.819-1.118-1.571-1.791-2.248
			C543.658,981.69,542.751,981.01,541.548,979.985z M546.375,976.635c3.188,0.467,239.509,0.32,241.407-0.188
			c-0.194-2.335-0.311-4.723-0.604-7.09c-0.831-6.716-2.496-13.208-5.871-19.129c-4.731-8.302-11.666-12.685-21.512-12.672
			c-67.354,0.09-134.708,0.047-202.063,0.047c-0.941,0-1.882,0-3.013,0C551.912,950.736,549.145,963.68,546.375,976.635z"/>
		<path fill-rule="evenodd" clip-rule="evenodd" fill="#FEF200" d="M546.375,976.635c2.77-12.955,5.538-25.898,8.345-39.032
			c1.131,0,2.072,0,3.013,0c67.354,0,134.709,0.042,202.063-0.047c9.847-0.013,16.781,4.371,21.512,12.672
			c3.375,5.921,5.04,12.413,5.871,19.129c0.292,2.367,0.41,4.755,0.604,7.09C785.883,976.955,549.563,977.102,546.375,976.635z"/>
		<path fill-rule="evenodd" clip-rule="evenodd" fill="#FEF200" d="M782.045,1000.963c-0.268,0.849-0.376,1.381-0.596,1.863
			c-5.97,13.15-14.73,23.88-27.214,31.389c-7.091,4.266-14.74,6.326-23.036,6.312c-33.434-0.054-66.868-0.022-100.302-0.022
			c-1.034,0-2.068,0-3.415,0c-4.498,21.054-8.979,42.026-13.471,63.054c-31.582,0-62.986,0-94.645,0
			c7.283-34.12,14.529-68.068,21.795-102.112c0.745-0.064,1.363-0.123,1.983-0.168c0.239-0.017,0.48-0.003,0.72-0.003
			c45.67-0.044,91.34-0.077,137.01-0.135c32.711-0.042,65.422-0.118,98.132-0.179
			C779.936,1000.961,780.864,1000.963,782.045,1000.963z"/>
		<path fill-rule="evenodd" clip-rule="evenodd" fill="#FFFFFF" d="M1056.503,1200.766c0-11.609,0-23.088,0-34.705
			c0.382-0.09,0.746-0.252,1.109-0.25c10.702,0.04,21.404,0.035,32.104,0.184c3.611,0.05,7.126,0.925,10.416,2.469
			c5.676,2.663,8.953,7.06,9.361,13.403c0.422,6.549-2.052,11.675-7.667,15.185c-4.253,2.658-9.011,3.774-13.918,3.852
			c-10.142,0.16-20.289,0.044-30.434,0.036C1057.245,1200.938,1057.016,1200.86,1056.503,1200.766z"/>
		<path fill-rule="evenodd" clip-rule="evenodd" fill="#FFFFFF" d="M1530.382,1200.816c0-11.77,0-23.26,0-35.031
			c0.999,0,1.857,0,2.714,0c8.8,0,17.6-0.014,26.4,0.006c4.337,0.01,8.619,0.431,12.728,1.961
			c5.151,1.918,8.999,5.132,10.546,10.616c2.212,7.837-0.862,15.251-7.968,19.202c-4.075,2.265-8.536,3.278-13.123,3.341
			c-9.999,0.138-20,0.044-30,0.038C1531.297,1200.948,1530.914,1200.872,1530.382,1200.816z"/>
		<path fill-rule="evenodd" clip-rule="evenodd" fill="#FFFFFF" d="M718.464,1238.593c-11.745-0.209-21.3-3.574-29.13-11.278
			c-18.658-18.359-12.978-53.408,16.527-61.632c12.322-3.435,24.236-1.874,34.798,5.616c11.735,8.322,16.798,20.002,15.485,34.309
			c-1.538,16.765-14.461,29.989-31.913,32.427C722.021,1238.343,719.784,1238.468,718.464,1238.593z"/>
		<path fill-rule="evenodd" clip-rule="evenodd" fill="#FFFFFF" d="M1425.364,1238.561c-11.925-0.193-22.254-4.138-30.188-13.295
			c-17.21-19.863-8.971-53.811,20.88-60.206c9.787-2.096,19.35-1.128,28.176,3.687c13.707,7.477,20.307,19.271,19.809,34.863
			c-0.5,15.679-11.266,28.936-26.828,33.352C1433.346,1238.059,1429.392,1238.569,1425.364,1238.561z"/>
		<path fill-rule="evenodd" clip-rule="evenodd" fill="#FFFFFF" d="M952.266,1238.607c-13.466-0.292-24.327-4.685-32.269-14.985
			c-14.967-19.411-7.424-50.683,20.076-58.03c12.277-3.28,24.048-1.643,34.562,5.753c10.147,7.138,15.277,17.157,15.604,29.586
			c0.492,18.663-12.845,34.449-32.23,37.117C955.875,1238.342,953.719,1238.469,952.266,1238.607z"/>
		<path fill-rule="evenodd" clip-rule="evenodd" fill="#FFFFFF" d="M1280.686,1203.434c0-12.592,0-24.944,0-37.44
			c0.423-0.072,0.795-0.192,1.166-0.19c8.553,0.033,17.108-0.006,25.659,0.16c4.436,0.086,8.71,1.157,12.612,3.367
			c5.435,3.079,8.245,7.736,8.625,14.015c0.623,10.277-6.3,16.19-13.868,18.573c-3.213,1.012-6.52,1.536-9.909,1.524
			c-7.276-0.025-14.552-0.008-21.828-0.008C1282.364,1203.434,1281.586,1203.434,1280.686,1203.434z"/>
		<path fill-rule="evenodd" clip-rule="evenodd" fill="#FEF200" d="M1614.939,1029.121c-0.582,0.627-1.187,1.234-1.741,1.885
			c-19.82,23.244-39.637,46.492-59.451,69.742c-2.498,2.93-2.491,2.936-6.42,2.936c-16.158,0-32.315,0-48.474,0
			c-0.954,0-1.909,0-3.079,0c-10.506-25.758-20.995-51.476-31.485-77.193c-0.16-0.004-0.321-0.008-0.481-0.012
			c-1.999,8.48-3.653,17.041-5.495,25.557c-1.84,8.511-3.586,17.042-5.388,25.561c-1.817,8.588-3.652,17.173-5.51,25.91
			c-31.485,0-62.876,0-94.618,0c7.211-34.158,14.515-68.23,21.769-102.405c54.013,0,107.816,0,161.931,0
			c2.135,6.338,4.31,12.795,6.606,19.615c0.743-0.988,1.272-1.649,1.756-2.342c3.619-5.177,7.265-10.336,10.819-15.558
			c0.89-1.307,1.822-1.896,3.491-1.895c51.513,0.051,103.026,0.041,154.539,0.046c0.705,0,1.411,0.063,2.418,0.111
			c-7.283,34.229-14.528,68.274-21.801,102.453c-31.466,0-62.866,0-94.62,0C1604.848,1078.693,1610.174,1054.013,1614.939,1029.121z
			"/>
		<path fill-rule="evenodd" clip-rule="evenodd" fill="#FEF200" d="M1963.951,1064.803c-2.823,13.124-5.572,25.898-8.365,38.881
			c-0.926,0-1.708,0-2.489,0c-62.384,0-124.769-0.006-187.152,0.014c-4.345,0.001-8.392-1.097-12.205-3.046
			c-9.439-4.823-16.448-12.024-20.855-21.697c-2.015-4.423-2.591-8.985-1.547-13.794c4.458-20.53,8.849-41.075,13.269-61.613
			c0.148-0.689,0.351-1.366,0.553-2.144c77.328,0,154.557,0,231.782,0c0.187,1.775-7.007,35.682-8.194,38.478
			c-45.629,0-91.351,0-137.091,0c-1.004,2.292-1.235,4.531-0.794,6.729c1.217,6.071,4.075,11.236,9.005,15.113
			c2.655,2.088,5.633,3.116,9.095,3.111c37.19-0.051,74.381-0.032,111.571-0.032
			C1961.551,1064.803,1962.569,1064.803,1963.951,1064.803z"/>
		<path fill-rule="evenodd" clip-rule="evenodd" fill="#FEF200" d="M812.683,1001.048c90.969,0,181.648,0,272.229,0
			c0.156,0.135,0.225,0.175,0.266,0.235c0.044,0.064,0.083,0.146,0.087,0.221c0.013,0.237,0.053,0.483,0.005,0.71
			c-7.068,33.287-14.144,66.572-21.225,99.856c-0.099,0.465-0.284,0.912-0.467,1.485c-31.397,0-62.798,0-94.502,0
			c4.381-20.646,8.73-41.139,13.107-61.764c-28.054,0-55.855,0-83.827,0c-4.383,20.601-8.75,41.125-13.139,61.752
			c-31.456,0-62.764,0-94.347,0C798.154,1069.322,805.398,1035.282,812.683,1001.048z"/>
		<path fill-rule="evenodd" clip-rule="evenodd" fill="#FEF200" d="M2194.142,1041.036c16.579,20.703,33.157,41.406,49.803,62.193
			c-0.813,0.715-1.719,0.439-2.527,0.441c-13.838,0.02-27.677,0.014-41.515,0.014c-15.918,0-31.836-0.03-47.754,0.043
			c-1.783,0.008-2.918-0.547-4.058-1.886c-16.118-18.941-32.275-37.848-48.467-56.726c-1.76-2.052-3.786-3.88-6.914-4.626
			c-2.362,10.584-4.532,21.109-6.775,31.617c-2.231,10.455-4.48,20.906-6.739,31.441c-31.544,0-62.942,0-94.635,0
			c7.289-34.153,14.538-68.115,21.803-102.156c81.716,0,163.282,0,244.98,0c-0.119,0.478-0.154,0.878-0.313,1.222
			c-6.657,14.328-16.309,25.909-30.533,33.306c-6.009,3.125-12.406,4.584-19.156,4.587c-2.312,0.001-4.625,0-6.938,0
			C2194.316,1040.682,2194.229,1040.859,2194.142,1041.036z"/>
		<path fill-rule="evenodd" clip-rule="evenodd" fill="#FEF200" d="M1209.089,1001.092c-0.562,2.7-1.085,5.259-1.63,7.814
			c-2.583,12.106-5.157,24.214-7.774,36.313c-0.502,2.318-0.107,4.458,0.958,6.496c2.707,5.179,6.752,9.066,11.761,11.994
			c1.567,0.916,3.28,1.111,5.079,1.109c23.031-0.024,46.063-0.016,69.095-0.016c14.235,0,28.47,0,42.705,0c0.854,0,1.707,0,2.878,0
			c-2.823,13.115-5.573,25.893-8.369,38.881c-0.978,0-1.843,0-2.708,0c-61.738,0-123.476-0.011-185.213,0.022
			c-4.435,0.002-8.547-1.07-12.438-3.057c-9.344-4.772-16.424-11.799-20.942-21.324c-2.194-4.625-2.817-9.391-1.715-14.46
			c4.481-20.604,8.867-41.229,13.292-61.844c0.132-0.616,0.32-1.219,0.509-1.929
			C1146.05,1001.092,1177.441,1001.092,1209.089,1001.092z"/>
		<path fill-rule="evenodd" clip-rule="evenodd" fill="#FEF200" d="M1090.481,976.996c-90.854,0-181.586,0-272.501,0
			c0.363-2.578,1.41-4.712,2.538-6.796c3.033-5.606,7.006-10.506,11.605-14.881c6.175-5.873,13.023-10.819,20.688-14.6
			c4.23-2.087,8.675-3.128,13.405-3.127c64.298,0.017,128.596,0.017,192.894-0.002c4.102-0.001,7.965,0.821,11.409,3.061
			c10.761,6.998,17.64,16.724,20.292,29.338C1091.306,972.347,1091.122,974.935,1090.481,976.996z"/>
		<path fill-rule="evenodd" clip-rule="evenodd" fill="#FEF200" d="M2256.888,976.744c-81.702,0-163.333,0-245.307,0
			c2.679-13.013,5.508-25.907,8.335-39.141c0.972,0,1.897,0,2.824,0c31.673,0,63.347,0,95.021,0c36.953,0,73.905,0.113,110.856-0.07
			c10.908-0.054,18.239,4.925,22.937,14.309c3.748,7.484,5.269,15.545,5.471,23.875
			C2257.032,976.019,2256.946,976.323,2256.888,976.744z"/>
		<path fill-rule="evenodd" clip-rule="evenodd" fill="#FEF200" d="M1990.953,937.603c-2.821,13.314-5.565,26.261-8.294,39.136
			c-1.878,0.494-229.338,0.606-232.223,0.117c0.118-0.672,0.172-1.365,0.365-2.016c0.942-3.174,2.486-6.057,4.421-8.726
			c6.845-9.441,15.736-16.495,25.877-22.069c4.635-2.547,9.42-4.772,14.664-5.734c2.189-0.402,4.438-0.678,6.661-0.68
			c61.977-0.036,123.955-0.028,185.932-0.028C1989.066,937.603,1989.775,937.603,1990.953,937.603z"/>
		<path fill-rule="evenodd" clip-rule="evenodd" fill="#FEF200" d="M1729.658,937.603c-2.83,13.346-5.587,26.354-8.328,39.278
			c-3.231,0.49-145.192,0.348-147.042-0.16c0.456-0.698,0.861-1.363,1.309-1.999c8.281-11.763,16.588-23.508,24.825-35.302
			c0.92-1.318,1.871-1.856,3.509-1.854c41.014,0.047,82.028,0.037,123.042,0.037
			C1727.751,937.603,1728.528,937.603,1729.658,937.603z"/>
		<path fill-rule="evenodd" clip-rule="evenodd" fill="#FEF200" d="M1516.393,937.747c4.15,13.042,8.281,26.025,12.486,39.239
			c-49.766,0-99.232,0-149.062,0c2.653-13.146,5.505-26.129,8.273-39.239C1430.852,937.747,1473.455,937.747,1516.393,937.747z"/>
		<path fill-rule="evenodd" clip-rule="evenodd" fill="#FEF200" d="M1222.632,937.771c-2.794,13.169-5.54,26.113-8.316,39.201
			c-31.485,0-62.862,0-94.588,0c2.625-13.105,5.515-26.068,8.245-39.201C1159.497,937.771,1190.873,937.771,1222.632,937.771z"/>
	</g>
	<rect id="_x3C_Slice_x3E_" x="504" y="869" fill="none" width="1774" height="427"/>
</g>
<g id="Layer_2" display="none">
	<g display="inline">
		<path display="none" fill="#FFFFFF" d="M654.382,2193.009c0-142.72,0-285.44,0-428.16c830.72,0,1661.44,0,2492.161,0
			c0,38.08,0,76.16,0,114.24c-0.288-1.379-0.756-2.75-0.827-4.14c-0.15-2.921-0.917-5.666-1.911-8.379
			c-3.571-9.747-10.08-16.955-19.086-21.956c-7.648-4.248-15.967-6.427-24.553-7.76c-7.456-1.158-14.971-1.348-22.487-1.35
			c-89.589-0.025-179.177-0.016-268.766-0.016c-1.12,0-2.245-0.061-3.358,0.023c-1.079,0.081-2.146,0.313-3.09,0.459
			c-3.06,8.969-23.812,85.87-24.184,89.638c1.975,0.719,4.053,0.375,6.078,0.376c84.79,0.019,169.579,0.016,254.368,0.017
			c1.76,0,3.521-0.02,5.278,0.042c0.604,0.021,1.199,0.261,1.748,0.389c0.5,1.801-0.126,3.304-0.543,4.835
			c-2.812,10.333-5.617,20.669-8.438,31c-0.337,1.232-0.707,2.459-1.155,3.654c-0.869,2.315-2.382,3.718-5.062,3.524
			c-1.432-0.104-2.878-0.014-4.317-0.014c-84.149,0-168.299,0-252.448,0c-1.439,0-2.88-0.031-4.318,0.011
			c-1.08,0.031-2.157,0.157-3.41,0.254c-0.596,2.197-1.143,4.183-1.672,6.173c-15.187,56.989-30.372,113.979-45.555,170.97
			c-3.826,14.363-7.648,28.728-11.457,43.097c-0.356,1.345-1.075,2.692-0.106,4.478c1.567,0.036,3.298,0.114,5.028,0.108
			c18.876-0.059,37.752-0.125,56.627-0.201c8.958-0.037,17.916-0.086,26.873-0.162c1.246-0.01,2.49-0.205,3.767-0.317
			c0.507-1.748,0.976-3.265,1.387-4.799c11.174-41.683,22.339-83.368,33.521-125.047c0.319-1.189,0.822-2.33,1.305-3.673
			c57.64,0,115.058-0.001,172.476,0.021c0.594,0,1.189,0.309,1.771,0.47c0.416,2.474-0.642,4.545-1.211,6.669
			c-10.921,40.758-21.889,81.504-32.832,122.256c-0.362,1.347-0.757,2.709-0.857,3.95c0.556,0.359,0.815,0.675,1.077,0.676
			c29.592,0.068,59.184,0.115,88.776,0.149c0.932,0.001,1.863-0.141,3.019-0.234c0.522-1.632,1.062-3.106,1.469-4.617
			c12.562-46.772,25.07-93.56,37.719-140.308c1.531-5.66,2.018-11.328,1.66-17.079c-0.369-5.962-1.349-11.808-6.041-16.219
			c-0.188-0.177-0.167-0.577-0.27-0.974c1.908-1.343,3.934-2.605,5.773-4.096c4.95-4.009,8.35-9.224,11.105-14.877
			c2.6-5.335,4.441-10.953,5.984-16.675c5.826-21.604,11.646-43.211,17.519-64.803c1.43-5.257,2.647-10.528,2.872-16
			c0.044-1.082,0.492-2.148,0.754-3.222c0,140.48,0,280.96,0,421.44c-830.721,0-1661.44,0-2492.161,0c0-40.64,0-81.28,0-121.92
			c1.261-0.134,2.521-0.381,3.782-0.381c4.479,0,8.957,0.121,13.435,0.131c24.319,0.051,48.637,0.086,72.956,0.109
			c1.24,0.001,2.48-0.162,3.964-0.265c4.186-14.902,7.982-29.755,11.97-44.555c4.034-14.972,7.972-29.97,11.996-44.945
			c3.972-14.785,7.782-29.617,11.956-44.537c1.838-0.074,3.412-0.187,4.986-0.192c18.718-0.064,37.436-0.124,56.154-0.163
			c36.957-0.077,73.914-0.141,110.871-0.208c4.32-0.008,8.64,0,12.959-0.001c7.364,0,14.711-0.248,22.012-1.327
			c11.468-1.696,22.478-4.843,32.812-10.192c16.114-8.341,28.214-20.78,37.188-36.408c6.011-10.469,10.22-21.669,13.383-33.284
			c3.781-13.88,7.593-27.753,11.287-41.657c2.873-10.812,5.823-21.612,8.3-32.517c2.286-10.064,2.562-20.307,0.671-30.501
			c-2.384-12.861-9.247-22.632-20.643-29.142c-6.171-3.525-12.848-5.648-19.77-7.104c-9.134-1.92-18.396-2.292-27.682-2.294
			c-89.598-0.013-179.195-0.008-268.792-0.008c-1.12,0-2.244-0.057-3.358,0.022c-1.081,0.077-2.152,0.294-3.259,0.455
			c-0.459,1.576-0.879,2.948-1.259,4.333c-3.047,11.099-6.097,22.196-9.126,33.299c-4.417,16.192-8.821,32.387-13.222,48.583
			c-0.316,1.166-1.006,2.353,0.067,3.818c1.985,0,4.053,0,6.122,0c84.478,0,168.955,0,253.432,0c1.6,0,3.202-0.042,4.799,0.023
			c0.913,0.038,1.818,0.254,2.921,0.418c-0.173,1.306-0.211,2.421-0.48,3.478c-0.791,3.098-1.676,6.17-2.519,9.254
			c-2.277,8.326-4.497,16.667-6.848,24.973c-1.281,4.527-2.393,5.261-7.149,5.28c-10.879,0.045-21.758,0.093-32.637,0.104
			c-51.517,0.057-103.034,0.109-154.551,0.149c-23.359,0.018-46.719-0.007-70.078,0.023c-1.88,0.002-3.833-0.402-5.79,0.606
			c-0.405,1.295-0.882,2.644-1.25,4.022c-18.922,71.054-37.835,142.111-56.752,213.166c-0.411,1.543-0.783,3.106-1.359,4.587
			C655.709,2192.521,654.899,2192.708,654.382,2193.009z M1432.365,2194.083c0.51-1.67,1.02-3.175,1.429-4.707
			c5.819-21.772,11.614-43.551,17.436-65.322c16.185-60.529,32.396-121.051,48.553-181.588c3.255-12.195,6.492-24.399,9.41-36.678
			c2.195-9.236,2.707-18.661,1.518-28.122c-1.909-15.194-9.354-26.634-23.061-33.771c-5.568-2.9-11.51-4.738-17.632-6.044
			c-9.126-1.948-18.387-2.352-27.673-2.354c-63.831-0.016-127.663-0.019-191.495,0.005c-7.037,0.003-14.062,0.257-21.051,1.285
			c-11.324,1.664-22.148,4.857-32.308,10.172c-15.262,7.984-27.098,19.644-36.361,34.038c-8.56,13.3-14.35,27.806-18.603,42.97
			c-0.152,0.542-0.02,1.163-0.02,2.033c2.153,0,4.061,0,5.969,0c84.949,0,169.898,0,254.847,0c1.44,0,2.882-0.046,4.319,0.021
			c0.875,0.041,1.742,0.26,2.609,0.398c-0.811,5.301-9.929,39.162-11.63,43.123c-1.89,0.044-3.945,0.134-6,0.134
			c-84.789,0.007-169.578,0.006-254.366,0.006c-1.44,0-2.881-0.038-4.319,0.016c-1.076,0.039-2.147,0.196-3.487,0.327
			c-19.854,74.11-39.609,148.058-59.356,222.007c-0.154,0.575-0.071,1.213-0.093,1.695c0.469,0.302,0.725,0.612,0.98,0.611
			c29.428-0.041,58.855-0.103,88.283-0.176c1.098-0.003,2.196-0.14,3.557-0.231c4.17-14.854,8.008-29.678,11.972-44.466
			c3.973-14.821,7.964-29.637,11.948-44.455c3.978-14.794,7.819-29.626,11.906-44.227c4.204-0.644,110.319-0.92,170.201-0.49
			c1.413,0.01,2.826,0.136,4.618,0.227c-0.289,1.509-0.446,2.731-0.76,3.911c-7.279,27.338-14.57,54.673-21.871,82.005
			c-3.876,14.516-7.789,29.021-11.641,43.543c-0.351,1.32-1.105,2.672-0.398,4.099
			C1343.577,2194.664,1427.328,2194.716,1432.365,2194.083z M2094.323,1926.017c-3.578,13.39-6.965,26.035-10.335,38.684
			c-3.416,12.818-6.813,25.642-10.224,38.461c-3.371,12.665-6.745,25.329-10.125,37.991c-3.379,12.662-6.773,25.32-10.147,37.984
			s-6.721,25.334-10.099,37.998c-3.419,12.817-6.926,25.612-10.274,38.447c-3.3,12.653-6.922,25.226-9.946,37.863
			c0.591,0.317,0.867,0.594,1.144,0.596c29.588,0.174,59.177,0.331,88.766,0.469c0.943,0.005,1.888-0.181,3.022-0.297
			c0.441-1.389,0.928-2.73,1.295-4.103c4.497-16.83,8.977-33.665,13.459-50.499c18.588-69.806,37.174-139.612,55.771-209.416
			c0.361-1.353,0.593-2.778,1.626-4.195c1.238,0,2.501,0,3.765,0c3.679,0,7.359,0,11.038,0c18.876,0,37.752-0.014,56.628,0.025
			c1.691,0.003,3.493-0.456,5.309,0.708c-0.334,1.556-0.598,3.114-1.005,4.633c-16.425,61.286-32.867,122.566-49.295,183.851
			c-6.662,24.854-13.298,49.714-19.939,74.573c-0.361,1.351-1.023,2.687-0.417,4.211c0.443,0.154,0.876,0.435,1.31,0.436
			c29.753,0.033,59.505,0.047,89.258,0.04c0.611,0,1.221-0.262,2.054-0.452c1.378-5.077,2.78-10.146,4.129-15.23
			c18.735-70.594,37.466-141.188,56.188-211.786c4.793-18.074,9.677-36.125,14.282-54.248c2.852-11.222,4.155-22.633,2.619-34.236
			c-2.259-17.066-10.919-29.395-26.82-36.379c-6.187-2.717-12.691-4.297-19.354-5.331c-7.298-1.132-14.649-1.314-22.006-1.316
			c-113.735-0.015-227.471-0.01-341.206-0.01c-1.28,0-2.562-0.045-3.838,0.027c-0.921,0.052-1.834,0.263-2.825,0.415
			c-0.383,1.244-0.736,2.288-1.026,3.349c-2.913,10.635-5.812,21.274-8.723,31.911c-4.555,16.648-9.137,33.29-13.638,49.953
			c-0.39,1.445-1.311,2.924-0.472,4.875C1980.685,1926.017,2037.117,1926.017,2094.323,1926.017z M2398.814,1969.964
			c-1.078,2.157-1.45,4.374-2.018,6.514c-10.444,39.401-20.904,78.798-31.28,118.217c-2.685,10.198-5.37,20.411-7.552,30.724
			c-2.066,9.762-2.345,19.69-0.51,29.57c2.579,13.891,9.873,24.436,22.419,31.179c3.959,2.128,8.132,3.725,12.456,4.929
			c9.624,2.681,19.471,3.688,29.419,3.687c56.638-0.006,113.275-0.051,169.913-0.104c18.397-0.018,36.796-0.1,55.194-0.153
			c0.479-0.001,0.964,0.039,1.438-0.011c1.081-0.113,2.158-0.269,3.112-0.392c2.145-5.713,23.95-86.313,24.384-90.18
			c-1.426-0.063-2.835-0.179-4.244-0.178c-5.92,0.002-11.839,0.055-17.759,0.061c-39.357,0.04-78.716,0.08-118.073,0.104
			c-24.159,0.015-48.318,0.003-72.478,0.002c-1.28,0-2.563,0.055-3.839-0.026c-0.892-0.058-1.772-0.304-3.054-0.538
			c3.857-14.457,7.646-28.613,11.714-42.954c2.127-0.046,4.023-0.124,5.92-0.125c58.718-0.006,117.436-0.005,176.153-0.005
			c11.04,0,22.079,0.009,33.119-0.011c1.402-0.003,2.804-0.151,4.297-0.237c0.427-1.244,0.849-2.269,1.133-3.33
			c7.493-27.945,14.976-55.895,22.437-83.849c0.232-0.871,0.234-1.803,0.343-2.698
			C2707.636,1969.578,2406.119,1969.389,2398.814,1969.964z M1601.893,2103.571c0.472-2.013,0.821-3.714,1.271-5.389
			c17.062-63.594,34.138-127.185,51.198-190.78c5.963-22.228,11.889-44.465,17.829-66.699c0.404-1.511,1.183-2.979,0.596-4.675
			c-1.632-0.91-3.429-0.516-5.148-0.52c-15.676-0.034-31.352-0.021-47.028-0.021c-11.837,0-23.674-0.02-35.511,0.023
			c-1.705,0.006-3.522-0.456-5.219,0.771c-0.34,1.143-0.735,2.355-1.063,3.586c-4.812,18.069-9.615,36.14-14.42,54.21
			c-17.699,66.568-35.416,133.131-53.077,199.708c-2.745,10.346-5.528,20.697-7.766,31.158c-2.154,10.072-2.47,20.322-0.491,30.51
			c2.73,14.062,10.26,24.664,23.2,31.073c3.7,1.833,7.622,3.327,11.581,4.511c9.414,2.816,19.136,3.727,28.918,3.736
			c29.272,0.028,58.544-0.064,87.816-0.086c25.273-0.019,50.547,0.016,75.821-0.011c20.634-0.021,41.267-0.09,61.9-0.17
			c1.562-0.006,3.208,0.384,5.038-0.826c8.091-29.552,16.24-59.418,24.328-89.406c-1.996-0.82-3.758-0.502-5.462-0.502
			c-31.992,0.001-63.983,0.032-95.976,0.055c-7.678,0.005-15.356,0.002-23.034,0.009c-30.392,0.03-60.783,0.066-91.175,0.08
			C1604.776,2103.92,1603.534,2103.715,1601.893,2103.571z M2434.691,1835.973c-0.432,1.415-0.884,2.759-1.251,4.127
			c-4.51,16.827-9.01,33.656-13.507,50.486c-2.765,10.346-5.528,20.691-8.269,31.042c-0.351,1.324-1.103,2.674-0.042,4.208
			c103.733,0,207.517,0,311.396,0c0.376-0.801,0.801-1.481,1.028-2.222c5.081-16.551,22.911-83.144,23.448-87.538
			c-0.419-0.165-0.854-0.485-1.289-0.485c-103.178-0.035-206.355-0.049-309.532-0.045
			C2436.065,1835.546,2435.458,1835.802,2434.691,1835.973z M1944.689,2194.835c0.681-2.341,1.245-4.155,1.736-5.989
			c6.981-26.09,13.956-52.182,20.924-78.275c12.122-45.393,24.241-90.787,36.344-136.186c0.357-1.338,0.52-2.729,0.778-4.124
			c-0.743-0.244-1.182-0.515-1.623-0.515c-29.91-0.016-59.821-0.011-89.731,0.013c-0.448,0-0.896,0.272-1.472,0.458
			c-0.219,0.54-0.519,1.1-0.678,1.697c-19.573,73.508-39.136,147.019-58.685,220.534c-0.114,0.427-0.015,0.91-0.015,1.298
			c0.343,0.255,0.587,0.598,0.838,0.603C1883.48,2194.952,1913.857,2194.636,1944.689,2194.835z"/>
		<path display="none" fill-rule="evenodd" clip-rule="evenodd" d="M3146.543,1895.409c-0.262,1.073-0.71,2.14-0.754,3.222
			c-0.225,5.472-1.442,10.743-2.872,16c-5.873,21.592-11.692,43.199-17.519,64.803c-1.543,5.723-3.385,11.34-5.984,16.675
			c-2.756,5.654-6.155,10.869-11.105,14.877c-1.84,1.491-3.865,2.753-5.773,4.096c0.103,0.397,0.081,0.797,0.27,0.974
			c4.692,4.412,5.672,10.257,6.041,16.219c0.357,5.751-0.129,11.419-1.66,17.079c-12.648,46.748-25.156,93.535-37.719,140.308
			c-0.406,1.511-0.946,2.985-1.469,4.617c-1.155,0.093-2.087,0.236-3.019,0.234c-29.593-0.034-59.185-0.081-88.776-0.149
			c-0.262-0.001-0.521-0.316-1.077-0.676c0.101-1.241,0.495-2.604,0.857-3.95c10.943-40.752,21.911-81.498,32.832-122.256
			c0.569-2.125,1.627-4.196,1.211-6.669c-0.581-0.161-1.177-0.47-1.771-0.47c-57.418-0.022-114.836-0.021-172.476-0.021
			c-0.482,1.343-0.985,2.484-1.305,3.673c-11.183,41.68-22.348,83.365-33.521,125.047c-0.411,1.534-0.88,3.051-1.387,4.799
			c-1.276,0.112-2.521,0.307-3.767,0.317c-8.957,0.076-17.915,0.125-26.873,0.162c-18.875,0.076-37.751,0.143-56.627,0.201
			c-1.73,0.006-3.461-0.072-5.028-0.108c-0.969-1.785-0.25-3.132,0.106-4.478c3.809-14.369,7.631-28.733,11.457-43.097
			c15.183-56.99,30.368-113.98,45.555-170.97c0.529-1.99,1.076-3.976,1.672-6.173c1.253-0.097,2.33-0.223,3.41-0.254
			c1.438-0.042,2.879-0.011,4.318-0.011c84.149,0,168.299,0,252.448,0c1.439,0,2.886-0.09,4.317,0.014
			c2.68,0.193,4.192-1.209,5.062-3.524c0.448-1.194,0.818-2.422,1.155-3.654c2.82-10.331,5.625-20.667,8.438-31
			c0.417-1.531,1.043-3.034,0.543-4.835c-0.549-0.128-1.145-0.368-1.748-0.389c-1.758-0.062-3.519-0.042-5.278-0.042
			c-84.789-0.001-169.578,0.002-254.368-0.017c-2.025,0-4.104,0.343-6.078-0.376c0.371-3.768,21.124-80.669,24.184-89.638
			c0.943-0.146,2.011-0.378,3.09-0.459c1.113-0.084,2.238-0.023,3.358-0.023c89.589,0,179.177-0.009,268.766,0.016
			c7.517,0.002,15.031,0.192,22.487,1.35c8.586,1.333,16.904,3.512,24.553,7.76c9.006,5.001,15.515,12.209,19.086,21.956
			c0.994,2.713,1.761,5.458,1.911,8.379c0.071,1.39,0.539,2.76,0.827,4.14C3146.543,1884.529,3146.543,1889.969,3146.543,1895.409z
			 M2787.646,1918.478c2.684,0,4.587,0,6.49,0c81.912,0,163.823,0,245.734,0c1.44,0,2.881,0.022,4.32,0
			c6.445-0.098,11.146,3.294,8.926,11.558c-3.358,12.503-6.836,24.974-10.283,37.453c-0.297,1.074-0.658,2.147-1.134,3.152
			c-1.876,3.96-4.993,6.14-9.416,6.305c-1.598,0.06-3.199,0.02-4.799,0.02c-82.552,0-165.104,0-247.655,0
			c-1.439,0-2.881-0.042-4.318,0.018c-1.082,0.045-2.159,0.222-3.488,0.367c-0.627,2.252-1.243,4.385-1.815,6.529
			c-11.075,41.545-22.152,83.091-33.215,124.639c-6.663,25.022-13.307,50.048-19.936,75.079c-0.269,1.015-0.304,2.091-0.5,3.523
			c2.102,0,3.847,0.004,5.593,0c14.397-0.037,28.795-0.064,43.193-0.118c8.157-0.03,16.315-0.088,24.473-0.172
			c1.234-0.013,2.465-0.234,3.832-0.372c3.061-11.341,6.07-22.436,9.046-33.539c2.979-11.115,5.921-22.241,8.888-33.36
			c2.967-11.12,5.879-22.254,8.936-33.349c3.047-11.06,5.711-22.229,9.14-33.402c2.023,0,3.768,0,5.511,0
			c14.559,0,29.117,0,43.676,0c42.236,0,84.472-0.003,126.707,0.008c1.916,0,3.865-0.077,5.742,0.231
			c4.205,0.691,6.53,3.345,6.462,7.609c-0.038,2.361-0.513,4.764-1.122,7.06c-4.836,18.229-9.764,36.435-14.643,54.653
			c-5.375,20.072-10.727,40.15-16.092,60.224c-0.363,1.362-1.071,2.691-0.377,4.138c3.824,0.508,71.906,0.548,76.536,0.012
			c0.568-1.845,1.235-3.795,1.77-5.781c10.502-39.052,21.015-78.101,31.454-117.168c2.062-7.716,3.942-15.486,5.705-23.277
			c1.571-6.942-0.383-13.036-5.399-18.006c-2.372-2.349-5.14-4.296-7.709-6.449c-0.683-0.572-1.292-1.232-2.088-1.999
			c1.448-0.761,2.57-1.361,3.702-1.944c15.206-7.833,25.128-19.859,29.398-36.543c4.002-15.639,8.324-31.196,12.321-46.837
			c2.571-10.062,4.991-20.171,7.133-30.333c1.423-6.747,1.724-13.611,0.583-20.511c-1.854-11.223-7.32-19.976-17.105-25.933
			c-5.107-3.11-10.652-5.103-16.444-6.442c-9.09-2.102-18.341-2.696-27.634-2.699c-73.272-0.018-146.545-0.01-219.816-0.01
			c-14.879,0-29.758-0.005-44.636,0.006c-1.731,0.001-3.463,0.086-5.425,0.139C2801.148,1868.054,2794.5,1892.883,2787.646,1918.478
			z"/>
		<path display="none" fill-rule="evenodd" clip-rule="evenodd" d="M654.382,2193.009c0.517-0.301,1.327-0.489,1.497-0.925
			c0.576-1.481,0.948-3.044,1.359-4.587c18.917-71.055,37.83-142.112,56.752-213.166c0.367-1.378,0.845-2.727,1.25-4.022
			c1.957-1.008,3.91-0.604,5.79-0.606c23.359-0.03,46.719-0.005,70.078-0.023c51.517-0.04,103.034-0.092,154.551-0.149
			c10.879-0.012,21.758-0.06,32.637-0.104c4.756-0.02,5.868-0.753,7.149-5.28c2.351-8.305,4.571-16.646,6.848-24.973
			c0.843-3.083,1.729-6.156,2.519-9.254c0.27-1.057,0.308-2.172,0.48-3.478c-1.103-0.165-2.008-0.381-2.921-0.418
			c-1.597-0.065-3.199-0.023-4.799-0.023c-84.478,0-168.955,0-253.432,0c-2.068,0-4.137,0-6.122,0
			c-1.073-1.466-0.383-2.652-0.067-3.818c4.4-16.196,8.804-32.392,13.222-48.583c3.029-11.103,6.079-22.201,9.126-33.299
			c0.38-1.384,0.8-2.757,1.259-4.333c1.107-0.161,2.178-0.378,3.259-0.455c1.114-0.079,2.239-0.022,3.358-0.022
			c89.597,0,179.194-0.005,268.792,0.008c9.286,0.001,18.547,0.374,27.682,2.294c6.922,1.456,13.599,3.578,19.77,7.104
			c11.396,6.51,18.259,16.281,20.643,29.142c1.89,10.195,1.615,20.438-0.671,30.501c-2.477,10.905-5.427,21.705-8.3,32.517
			c-3.694,13.904-7.506,27.776-11.287,41.657c-3.163,11.615-7.372,22.815-13.383,33.284c-8.974,15.627-21.073,28.066-37.188,36.408
			c-10.334,5.349-21.344,8.497-32.812,10.192c-7.301,1.08-14.648,1.327-22.012,1.327c-4.32,0-8.64-0.007-12.959,0.001
			c-36.957,0.067-73.914,0.131-110.871,0.208c-18.718,0.039-37.436,0.099-56.154,0.163c-1.574,0.006-3.148,0.119-4.986,0.192
			c-4.174,14.92-7.984,29.752-11.956,44.537c-4.024,14.975-7.962,29.973-11.996,44.945c-3.988,14.8-7.784,29.653-11.97,44.555
			c-1.484,0.104-2.724,0.267-3.964,0.265c-24.318-0.023-48.637-0.059-72.956-0.109c-4.479-0.01-8.957-0.131-13.435-0.131
			c-1.261,0-2.521,0.248-3.782,0.381C654.382,2194.289,654.382,2193.649,654.382,2193.009z M778.414,2052.963
			c1.945-0.059,3.528-0.145,5.112-0.148c18.396-0.038,36.793-0.073,55.19-0.091c43.992-0.044,87.984-0.06,131.976-0.131
			c8.812-0.015,17.564-0.79,26.21-2.59c24.432-5.086,43.457-17.973,56.65-39.261c6.196-9.997,10.619-20.771,13.688-32.095
			c3.721-13.729,7.376-27.477,10.929-41.25c2.993-11.603,5.905-23.23,8.647-34.895c1.765-7.507,2.443-15.147,1.541-22.864
			c-1.452-12.421-7.37-21.959-18.279-28.252c-3.756-2.167-7.769-3.735-11.933-4.934c-9.934-2.861-20.136-3.608-30.388-3.613
			c-88.465-0.042-176.931-0.024-265.396-0.024c-1.587,0-3.174,0-4.769,0c-0.457,0.961-0.912,1.638-1.111,2.382
			c-6.494,24.215-12.963,48.438-19.466,72.771c2.325,0.834,4.401,0.495,6.427,0.495c81.907,0.019,163.813,0.016,245.72,0.017
			c1.6,0,3.208-0.096,4.797,0.038c1.417,0.119,2.855,0.356,4.208,0.783c2.907,0.916,4.482,3.059,4.642,6.046
			c0.083,1.561-0.127,3.198-0.533,4.713c-3.313,12.349-6.686,24.682-10.092,37.006c-0.422,1.528-1.007,3.047-1.751,4.444
			c-1.79,3.362-4.679,5.155-8.482,5.422c-0.956,0.067-1.919,0.031-2.878,0.034c-9.438,0.025-18.876,0.065-28.314,0.069
			c-74.547,0.028-149.095,0.05-223.643,0.074c-0.8,0-1.601-0.029-2.399,0.008c-1.084,0.05-2.165,0.15-3.499,0.247
			c-0.552,1.994-1.073,3.818-1.562,5.651c-13.952,52.354-27.902,104.709-41.848,157.065c-3.826,14.363-7.644,28.729-11.449,43.098
			c-0.313,1.184-0.974,2.396-0.074,3.596c0.34,0.101,0.643,0.27,0.947,0.271c23.834,0.086,47.669,0.16,71.504,0.228
			c0.958,0.003,1.917-0.055,2.875-0.103c0.151-0.008,0.303-0.1,0.445-0.172c0.135-0.068,0.258-0.16,0.7-0.44
			C754.552,2142.359,766.42,2097.896,778.414,2052.963z"/>
		<path display="none" fill-rule="evenodd" clip-rule="evenodd" d="M1432.365,2194.083c-5.037,0.633-88.788,0.581-92.57-0.004
			c-0.708-1.427,0.047-2.778,0.398-4.099c3.853-14.521,7.765-29.027,11.641-43.543c7.301-27.332,14.592-54.667,21.871-82.005
			c0.314-1.18,0.471-2.402,0.76-3.911c-1.792-0.091-3.205-0.217-4.618-0.227c-59.882-0.43-165.998-0.154-170.201,0.49
			c-4.087,14.601-7.929,29.433-11.906,44.227c-3.984,14.818-7.975,29.634-11.948,44.455c-3.964,14.788-7.802,29.611-11.972,44.466
			c-1.361,0.092-2.458,0.229-3.557,0.231c-29.428,0.074-58.855,0.135-88.283,0.176c-0.255,0-0.511-0.309-0.98-0.611
			c0.022-0.482-0.061-1.12,0.093-1.695c19.748-73.949,39.503-147.897,59.356-222.007c1.34-0.13,2.411-0.288,3.487-0.327
			c1.438-0.053,2.879-0.016,4.319-0.016c84.789,0,169.578,0,254.366-0.006c2.055,0,4.11-0.09,6-0.134
			c1.701-3.961,10.819-37.822,11.63-43.123c-0.868-0.138-1.734-0.357-2.609-0.398c-1.437-0.068-2.879-0.021-4.319-0.021
			c-84.949,0-169.898,0-254.847,0c-1.908,0-3.816,0-5.969,0c0-0.871-0.132-1.492,0.02-2.033c4.253-15.165,10.043-29.67,18.603-42.97
			c9.263-14.394,21.1-26.054,36.361-34.038c10.159-5.315,20.984-8.508,32.308-10.172c6.989-1.027,14.014-1.282,21.051-1.285
			c63.832-0.024,127.664-0.021,191.495-0.005c9.286,0.002,18.547,0.406,27.673,2.354c6.122,1.306,12.063,3.144,17.632,6.044
			c13.707,7.137,21.152,18.577,23.061,33.771c1.188,9.461,0.677,18.886-1.518,28.122c-2.918,12.278-6.154,24.483-9.41,36.678
			c-16.157,60.537-32.369,121.059-48.553,181.588c-5.822,21.771-11.616,43.55-17.436,65.322
			C1433.385,2190.908,1432.875,2192.413,1432.365,2194.083z M1426.102,2186.854c1.182-1.812,1.452-4.075,2.021-6.205
			c21.985-82.138,43.951-164.281,65.911-246.425c3.137-11.734,6.353-23.454,8.548-35.413c1.306-7.113,1.789-14.251,0.509-21.465
			c-1.89-10.649-7.083-19.065-16.255-24.925c-4.211-2.691-8.785-4.56-13.564-5.951c-9.769-2.844-19.815-3.615-29.903-3.624
			c-64.629-0.062-129.259-0.052-193.889-0.009c-9.128,0.006-18.209,0.786-27.164,2.686c-23.491,4.987-42.089,17.186-55.213,37.457
			c-6.488,10.02-10.957,20.934-14.331,32.331c-0.26,0.879-0.252,1.837-0.36,2.688c0.332,0.167,0.47,0.252,0.619,0.308
			c0.146,0.054,0.303,0.087,0.458,0.113c0.157,0.025,0.318,0.034,0.478,0.042c0.16,0.009,0.32,0.008,0.479,0.01
			c0.16,0.002,0.32,0.004,0.48,0.005c0.32,0.001,0.64,0.001,0.96,0.002c0.16,0,0.32,0,0.48,0s0.32,0,0.48,0
			c85.746,0,171.492,0,257.239,0c0.479,0,0.959,0,1.439,0c0.16,0,0.32,0,0.479,0c0.32,0,0.64,0,0.96,0.001c0.16,0,0.32,0,0.48,0.001
			c0.16,0.001,0.32,0.003,0.48,0.005c0.16,0.002,0.32,0.001,0.48,0.008c0.16,0.007,0.319,0.021,0.479,0.035
			c0.159,0.013,0.323,0.011,0.476,0.048c0.154,0.037,0.306,0.1,0.445,0.177c0.125,0.069,0.229,0.173,0.344,0.262
			c-0.484,4.16-13.836,54.15-15.578,58.094c-1.743,0-3.647,0-5.552,0c-66.549,0-133.098,0-199.648,0
			c-19.196,0-38.394-0.012-57.59,0.02c-1.718,0.003-3.508-0.395-5.303,0.552c-0.385,1.31-0.818,2.677-1.188,4.061
			c-11.892,44.467-23.777,88.937-35.665,133.405c-6.109,22.852-12.227,45.703-18.316,68.56c-0.263,0.987-0.278,2.041-0.453,3.415
			c2.141,0,3.886,0.003,5.632,0c14.877-0.037,29.754-0.064,44.631-0.118c7.677-0.027,15.354-0.086,23.032-0.173
			c1.225-0.014,2.448-0.251,3.699-0.389c0.566-1.98,1.072-3.653,1.524-5.342c11.175-41.682,22.342-83.366,33.526-125.046
			c0.281-1.047,0.745-2.045,1.086-2.965c5.923-0.506,186.657-0.372,190.457,0.155c-0.28,1.395-0.483,2.796-0.846,4.154
			c-6.431,24.09-12.887,48.172-19.324,72.259c-4.746,17.758-9.478,35.519-14.197,53.284c-0.317,1.195-0.473,2.434-0.705,3.659
			C1353.158,2187.234,1419.187,2187.425,1426.102,2186.854z"/>
		<path display="none" fill-rule="evenodd" clip-rule="evenodd" d="M2094.323,1926.017c-57.207,0-113.639,0-170.05,0
			c-0.839-1.951,0.082-3.43,0.472-4.875c4.501-16.663,9.083-33.305,13.638-49.953c2.91-10.636,5.81-21.275,8.723-31.911
			c0.291-1.061,0.644-2.105,1.026-3.349c0.991-0.152,1.904-0.363,2.825-0.415c1.276-0.072,2.559-0.027,3.838-0.027
			c113.735,0,227.47-0.005,341.206,0.01c7.357,0.001,14.708,0.184,22.006,1.316c6.663,1.034,13.167,2.614,19.354,5.331
			c15.901,6.984,24.562,19.312,26.82,36.379c1.536,11.603,0.232,23.014-2.619,34.236c-4.605,18.122-9.489,36.173-14.282,54.248
			c-18.723,70.597-37.454,141.192-56.188,211.786c-1.349,5.084-2.751,10.153-4.129,15.23c-0.833,0.19-1.443,0.452-2.054,0.452
			c-29.752,0.007-59.505-0.007-89.258-0.04c-0.434,0-0.867-0.282-1.31-0.436c-0.606-1.524,0.056-2.86,0.417-4.211
			c6.641-24.859,13.277-49.72,19.939-74.573c16.428-61.285,32.87-122.565,49.295-183.851c0.407-1.52,0.671-3.077,1.005-4.633
			c-1.816-1.163-3.618-0.704-5.309-0.708c-18.876-0.039-37.752-0.025-56.628-0.025c-3.679,0-7.358,0-11.038,0
			c-1.263,0-2.526,0-3.765,0c-1.033,1.417-1.266,2.842-1.626,4.195c-18.597,69.804-37.184,139.61-55.771,209.416
			c-4.482,16.834-8.962,33.668-13.459,50.499c-0.367,1.373-0.854,2.714-1.295,4.103c-1.135,0.117-2.079,0.302-3.022,0.297
			c-29.588-0.139-59.177-0.295-88.766-0.469c-0.277-0.001-0.553-0.278-1.144-0.596c3.024-12.637,6.646-25.21,9.946-37.863
			c3.349-12.835,6.855-25.63,10.274-38.447c3.377-12.663,6.725-25.334,10.099-37.998s6.769-25.322,10.147-37.984
			c3.379-12.663,6.754-25.326,10.125-37.991c3.411-12.819,6.808-25.643,10.224-38.461
			C2087.358,1952.052,2090.745,1939.407,2094.323,1926.017z M1933.893,1918.353c1.978,0.045,3.715,0.12,5.453,0.12
			c52.469,0.006,104.938,0.005,157.407,0.005c1.439,0,2.881-0.038,4.318,0.017c0.897,0.034,1.789,0.208,2.946,0.352
			c-0.412,1.833-0.704,3.385-1.11,4.906c-17.084,64.085-34.183,128.167-51.27,192.252c-6.012,22.546-12.003,45.097-17.987,67.649
			c-0.23,0.865-0.292,1.775-0.418,2.587c0.584,0.257,0.871,0.491,1.158,0.493c17.593,0.14,35.186,0.289,52.779,0.37
			c7.355,0.034,14.71-0.076,22.066-0.129c0.146-0.001,0.297-0.097,0.435-0.169c0.141-0.074,0.268-0.174,0.602-0.396
			c0.371-1.178,0.851-2.523,1.217-3.898c10.943-41.08,21.869-82.164,32.81-123.245c12.133-45.559,24.277-91.115,36.429-136.669
			c0.358-1.344,0.873-2.646,1.366-4.12c1.201,0,2.15,0,3.099,0c25.595,0,51.189-0.001,76.784,0.002c0.959,0,1.926-0.02,2.875,0.088
			c5.587,0.635,8.25,4.041,7.397,9.572c-0.267,1.729-0.81,3.418-1.262,5.116c-16.532,62.084-33.074,124.166-49.602,186.251
			c-5.592,21.005-11.157,42.016-16.712,63.03c-0.358,1.355-1.177,2.683-0.45,4.339c1.019,0.076,2.121,0.23,3.223,0.23
			c23.355,0.014,46.71,0.015,70.066-0.002c1.072-0.001,2.143-0.192,3.29-0.302c0.548-1.746,1.079-3.239,1.486-4.766
			c5.859-21.925,11.69-43.857,17.55-65.782c16.215-60.681,32.467-121.352,48.636-182.046c2.714-10.187,5.85-20.28,7.508-30.728
			c1.359-8.567,2.075-17.145,0.472-25.771c-2.168-11.676-8.131-20.681-18.558-26.6c-4.629-2.627-9.579-4.386-14.729-5.613
			c-8.925-2.126-18.016-2.677-27.148-2.678c-111.977-0.012-223.954-0.007-335.931-0.007c-1.439,0-2.88-0.017-4.318,0.035
			c-0.619,0.022-1.232,0.2-2.161,0.361c-6.627,24.166-12.985,48.412-19.495,72.617
			C1933.92,1916.547,1933.975,1917.335,1933.893,1918.353z"/>
		<path display="none" fill-rule="evenodd" clip-rule="evenodd" d="M2398.814,1969.964c7.305-0.576,308.821-0.387,312.646,0.197
			c-0.108,0.896-0.11,1.828-0.343,2.698c-7.461,27.954-14.943,55.903-22.437,83.849c-0.284,1.062-0.706,2.086-1.133,3.33
			c-1.493,0.086-2.895,0.234-4.297,0.237c-11.04,0.02-22.079,0.011-33.119,0.011c-58.718,0-117.436-0.001-176.153,0.005
			c-1.897,0-3.793,0.078-5.92,0.125c-4.068,14.341-7.857,28.497-11.714,42.954c1.281,0.234,2.162,0.48,3.054,0.538
			c1.275,0.082,2.559,0.026,3.839,0.026c24.159,0,48.318,0.013,72.478-0.002c39.357-0.024,78.716-0.064,118.073-0.104
			c5.92-0.006,11.839-0.059,17.759-0.061c1.409-0.001,2.818,0.115,4.244,0.178c-0.434,3.867-22.239,84.467-24.384,90.18
			c-0.954,0.123-2.031,0.279-3.112,0.392c-0.475,0.05-0.959,0.01-1.438,0.011c-18.398,0.053-36.797,0.136-55.194,0.153
			c-56.638,0.053-113.275,0.098-169.913,0.104c-9.948,0.001-19.795-1.006-29.419-3.687c-4.324-1.204-8.497-2.801-12.456-4.929
			c-12.546-6.743-19.84-17.288-22.419-31.179c-1.835-9.88-1.556-19.809,0.51-29.57c2.183-10.312,4.868-20.525,7.552-30.724
			c10.376-39.419,20.836-78.816,31.28-118.217C2397.364,1974.338,2397.736,1972.122,2398.814,1969.964z M2462.213,2052.782
			c73.316,0,146.239,0,219.394,0c0.511-1.695,1-3.184,1.408-4.696c2.665-9.876,5.31-19.757,7.964-29.636
			c3.276-12.194,6.578-24.381,9.805-36.588c0.379-1.435,1.191-2.916,0.537-4.639c-0.961-0.042-1.75-0.107-2.539-0.107
			c-97.741,0.031-195.482,0.067-293.224,0.109c-0.151,0-0.31,0.084-0.451,0.157c-0.133,0.068-0.248,0.171-0.606,0.427
			c-0.335,1.154-0.76,2.521-1.131,3.903c-8.94,33.344-17.886,66.688-26.805,100.038c-3.386,12.661-6.842,25.305-10.016,38.02
			c-2.375,9.517-3.386,19.235-2.396,29.038c1.48,14.671,8.637,25.552,22.165,31.836c3.313,1.54,6.825,2.751,10.355,3.706
			c8.228,2.224,16.66,2.945,25.174,2.938c54.391-0.042,108.781-0.05,163.172-0.082c18.716-0.011,37.432-0.052,56.148-0.089
			c1.576-0.003,3.152-0.075,4.977-0.122c6.5-24.317,12.939-48.389,19.355-72.466c0.238-0.893,0.263-1.842,0.402-2.883
			c-1.885-0.577-3.65-0.356-5.384-0.355c-26.715,0.014-53.43,0.054-80.145,0.075c-39.993,0.03-79.986,0.049-119.979,0.071
			c-1.439,0-2.885,0.06-4.317-0.046c-4.361-0.325-6.766-2.694-6.855-7.062c-0.039-1.882,0.354-3.818,0.828-5.658
			c3.426-13.311,6.917-26.605,10.406-39.9C2460.94,2056.924,2461.527,2055.105,2462.213,2052.782z"/>
		<path display="none" fill-rule="evenodd" clip-rule="evenodd" d="M1601.893,2103.571c1.642,0.144,2.883,0.349,4.125,0.349
			c30.392-0.014,60.784-0.05,91.175-0.08c7.678-0.007,15.356-0.004,23.034-0.009c31.992-0.023,63.984-0.054,95.976-0.055
			c1.704,0,3.466-0.317,5.462,0.502c-8.088,29.987-16.237,59.854-24.328,89.406c-1.831,1.21-3.477,0.82-5.038,0.826
			c-20.633,0.08-41.267,0.148-61.9,0.17c-25.274,0.027-50.548-0.008-75.821,0.011c-29.272,0.021-58.544,0.114-87.816,0.086
			c-9.783-0.01-19.504-0.92-28.918-3.736c-3.959-1.184-7.88-2.678-11.581-4.511c-12.94-6.409-20.469-17.012-23.2-31.073
			c-1.979-10.188-1.663-20.438,0.491-30.51c2.237-10.461,5.021-20.812,7.766-31.158c17.662-66.577,35.378-133.14,53.077-199.708
			c4.805-18.07,9.608-36.142,14.42-54.21c0.328-1.231,0.723-2.444,1.063-3.586c1.697-1.228,3.515-0.766,5.219-0.771
			c11.837-0.043,23.674-0.023,35.511-0.023c15.676,0,31.352-0.014,47.028,0.021c1.72,0.004,3.517-0.391,5.148,0.52
			c0.587,1.696-0.192,3.164-0.596,4.675c-5.939,22.234-11.866,44.472-17.829,66.699c-17.061,63.595-34.137,127.186-51.198,190.78
			C1602.714,2099.857,1602.364,2101.558,1601.893,2103.571z M1811.24,2111.499c-1.016-0.076-1.952-0.208-2.888-0.207
			c-4.158,0.004-8.317,0.068-12.475,0.07c-63.821,0.029-127.642,0.052-191.463,0.069c-1.278,0-2.576,0.049-3.83-0.145
			c-3.256-0.504-4.984-2.328-5.761-5.573c-0.591-2.472,0.103-4.772,0.715-7.073c14.433-54.204,28.889-108.4,43.337-162.6
			c7.821-29.34,15.641-58.681,23.447-88.024c0.4-1.504,0.673-3.041,1.065-4.838c-1.431-0.146-2.503-0.349-3.575-0.35
			c-23.513-0.018-47.026-0.019-70.539,0.003c-1.077,0.001-2.154,0.249-3.291,0.389c-0.499,1.716-0.973,3.236-1.384,4.772
			c-20.379,76.104-40.76,152.207-61.121,228.315c-3.799,14.203-7.632,28.398-11.22,42.654c-2.471,9.816-3.633,19.815-2.58,29.961
			c1.482,14.291,8.356,25.001,21.379,31.363c3.562,1.74,7.402,3.022,11.234,4.075c8.062,2.215,16.339,2.932,24.691,2.922
			c31.03-0.039,62.061-0.054,93.092-0.075c42.067-0.03,84.135-0.054,126.202-0.104c1.731-0.002,3.52,0.347,5.538-0.624
			c6.438-24.171,12.935-48.555,19.407-72.946C1811.373,2112.964,1811.24,2112.316,1811.24,2111.499z"/>
		<path display="none" fill-rule="evenodd" clip-rule="evenodd" d="M2434.691,1835.973c0.767-0.171,1.374-0.427,1.981-0.427
			c103.177-0.004,206.354,0.01,309.532,0.045c0.436,0,0.87,0.321,1.289,0.485c-0.537,4.394-18.367,70.987-23.448,87.538
			c-0.228,0.741-0.652,1.421-1.028,2.222c-103.879,0-207.662,0-311.396,0c-1.061-1.533-0.309-2.884,0.042-4.208
			c2.741-10.352,5.504-20.697,8.269-31.042c4.497-16.83,8.997-33.659,13.507-50.486
			C2433.807,1838.732,2434.26,1837.388,2434.691,1835.973z M2737.461,1843.48c-0.201-0.17-0.305-0.284-0.432-0.359
			c-0.136-0.081-0.289-0.141-0.441-0.182c-0.152-0.041-0.314-0.06-0.473-0.065c-0.799-0.024-1.598-0.058-2.396-0.058
			c-97.246,0.024-194.492,0.051-291.738,0.083c-0.156,0-0.318,0.049-0.466,0.107c-0.141,0.055-0.266,0.152-0.398,0.231
			c-1.641,3.409-19.736,70.93-20.057,74.883c2.021,0.65,4.113,0.343,6.17,0.343c94.688,0.017,189.375,0.014,284.064,0.014
			c1.12,0,2.242,0.047,3.358-0.015c1.086-0.06,2.166-0.231,3.406-0.372c6.541-24.534,13.044-48.919,19.522-73.312
			C2737.692,1844.36,2737.502,1843.86,2737.461,1843.48z"/>
		<path display="none" fill-rule="evenodd" clip-rule="evenodd" d="M1944.689,2194.835c-30.832-0.199-61.209,0.117-91.583-0.485
			c-0.251-0.005-0.495-0.348-0.838-0.603c0-0.388-0.099-0.871,0.015-1.298c19.548-73.515,39.112-147.025,58.685-220.534
			c0.159-0.597,0.459-1.157,0.678-1.697c0.577-0.187,1.024-0.458,1.472-0.458c29.911-0.024,59.821-0.029,89.731-0.013
			c0.44,0,0.88,0.271,1.623,0.515c-0.258,1.395-0.421,2.785-0.778,4.124c-12.103,45.398-24.222,90.792-36.344,136.186
			c-6.968,26.094-13.943,52.186-20.924,78.275C1945.934,2190.68,1945.37,2192.494,1944.689,2194.835z M1938.972,2186.825
			c18.439-69.008,36.918-138.156,55.378-207.31c0.158-0.59,0.075-1.245,0.1-1.78c-0.253-0.182-0.366-0.281-0.494-0.351
			c-0.14-0.076-0.292-0.169-0.442-0.178c-0.798-0.045-1.597-0.092-2.396-0.091c-24.149,0.025-48.298,0.056-72.447,0.091
			c-0.155,0-0.321,0.047-0.464,0.111c-0.137,0.062-0.252,0.174-0.831,0.592c-0.435,1.55-1.015,3.521-1.543,5.506
			c-10.785,40.452-21.573,80.904-32.343,121.36c-6.947,26.097-13.868,52.201-20.796,78.304c-0.318,1.199-1.016,2.383-0.259,3.658
			C1866.788,2187.308,1934.634,2187.431,1938.972,2186.825z"/>
		<path fill="#FFFF00" stroke="#000000" stroke-width="15" stroke-miterlimit="10" d="M2787.646,1918.478
			c6.854-25.595,13.502-50.424,20.221-75.52c1.962-0.052,3.693-0.137,5.425-0.139c14.878-0.011,29.757-0.006,44.636-0.006
			c73.271,0,146.544-0.008,219.816,0.01c9.293,0.002,18.544,0.597,27.634,2.699c5.792,1.339,11.337,3.333,16.444,6.442
			c9.785,5.957,15.251,14.709,17.105,25.933c1.141,6.9,0.84,13.764-0.583,20.511c-2.142,10.161-4.562,20.271-7.133,30.333
			c-3.997,15.641-8.319,31.198-12.321,46.837c-4.271,16.684-14.192,28.711-29.398,36.543c-1.132,0.583-2.254,1.183-3.702,1.944
			c0.796,0.767,1.405,1.426,2.088,1.999c2.569,2.153,5.337,4.1,7.709,6.449c5.017,4.97,6.971,11.063,5.399,18.006
			c-1.763,7.791-3.643,15.561-5.705,23.277c-10.439,39.068-20.952,78.117-31.454,117.168c-0.534,1.985-1.201,3.936-1.77,5.781
			c-4.63,0.536-72.712,0.496-76.536-0.012c-0.694-1.447,0.014-2.776,0.377-4.138c5.365-20.074,10.717-40.152,16.092-60.224
			c4.879-18.218,9.807-36.424,14.643-54.653c0.609-2.296,1.084-4.698,1.122-7.06c0.068-4.264-2.257-6.918-6.462-7.609
			c-1.877-0.308-3.826-0.231-5.742-0.231c-42.235-0.011-84.471-0.008-126.707-0.008c-14.559,0-29.117,0-43.676,0
			c-1.743,0-3.487,0-5.511,0c-3.429,11.173-6.093,22.343-9.14,33.402c-3.057,11.095-5.969,22.229-8.936,33.349
			c-2.967,11.119-5.908,22.245-8.888,33.36c-2.976,11.104-5.985,22.198-9.046,33.539c-1.367,0.138-2.598,0.359-3.832,0.372
			c-8.157,0.084-16.315,0.143-24.473,0.172c-14.398,0.053-28.796,0.081-43.193,0.118c-1.746,0.004-3.491,0-5.593,0
			c0.196-1.432,0.231-2.508,0.5-3.523c6.629-25.03,13.272-50.057,19.936-75.079c11.062-41.548,22.14-83.094,33.215-124.639
			c0.572-2.145,1.188-4.277,1.815-6.529c1.329-0.146,2.406-0.322,3.488-0.367c1.438-0.06,2.879-0.018,4.318-0.018
			c82.552,0,165.104,0,247.655,0c1.6,0,3.201,0.041,4.799-0.02c4.423-0.166,7.54-2.345,9.416-6.305
			c0.476-1.005,0.837-2.078,1.134-3.152c3.447-12.479,6.925-24.95,10.283-37.453c2.221-8.263-2.48-11.656-8.926-11.558
			c-1.439,0.021-2.88,0-4.32,0c-81.911,0-163.822,0-245.734,0C2792.233,1918.478,2790.33,1918.478,2787.646,1918.478z"/>
		<path fill="#FFFF00" stroke="#000000" stroke-width="15" stroke-miterlimit="10" d="M778.414,2052.963
			c-11.994,44.934-23.862,89.396-35.661,133.595c-0.441,0.28-0.564,0.373-0.7,0.44c-0.143,0.072-0.294,0.164-0.445,0.172
			c-0.958,0.048-1.917,0.105-2.875,0.103c-23.835-0.067-47.669-0.142-71.504-0.228c-0.304-0.001-0.607-0.17-0.947-0.271
			c-0.9-1.2-0.24-2.412,0.074-3.596c3.806-14.368,7.624-28.734,11.449-43.098c13.946-52.356,27.896-104.711,41.848-157.065
			c0.488-1.833,1.01-3.657,1.562-5.651c1.333-0.097,2.415-0.197,3.499-0.247c0.798-0.037,1.599-0.008,2.399-0.008
			c74.547-0.024,149.095-0.046,223.643-0.074c9.438-0.004,18.876-0.044,28.314-0.069c0.959-0.003,1.923,0.034,2.878-0.034
			c3.803-0.268,6.692-2.06,8.482-5.422c0.744-1.397,1.329-2.916,1.751-4.444c3.406-12.324,6.779-24.657,10.092-37.006
			c0.406-1.515,0.617-3.153,0.533-4.713c-0.16-2.988-1.735-5.13-4.642-6.046c-1.353-0.426-2.791-0.664-4.208-0.783
			c-1.589-0.134-3.197-0.038-4.797-0.038c-81.906-0.001-163.813,0.002-245.72-0.017c-2.025,0-4.102,0.339-6.427-0.495
			c6.503-24.333,12.972-48.556,19.466-72.771c0.2-0.745,0.655-1.421,1.111-2.382c1.595,0,3.182,0,4.769,0
			c88.465,0,176.931-0.018,265.396,0.024c10.252,0.005,20.455,0.752,30.388,3.613c4.164,1.199,8.177,2.767,11.933,4.934
			c10.909,6.293,16.827,15.832,18.279,28.252c0.902,7.717,0.224,15.357-1.541,22.864c-2.743,11.665-5.654,23.292-8.647,34.895
			c-3.552,13.773-7.208,27.521-10.929,41.25c-3.068,11.324-7.492,22.098-13.688,32.095c-13.193,21.288-32.218,34.175-56.65,39.261
			c-8.646,1.8-17.399,2.576-26.21,2.59c-43.992,0.072-87.984,0.087-131.976,0.131c-18.397,0.018-36.793,0.053-55.19,0.091
			C781.942,2052.818,780.359,2052.904,778.414,2052.963z"/>
		<path fill="#FFFF00" stroke="#000000" stroke-width="15" stroke-miterlimit="10" d="M1426.102,2186.854
			c-6.915,0.572-72.943,0.381-76.736-0.254c0.232-1.225,0.388-2.463,0.705-3.659c4.719-17.765,9.452-35.526,14.197-53.284
			c6.438-24.087,12.894-48.169,19.324-72.259c0.363-1.358,0.566-2.76,0.846-4.154c-3.799-0.527-184.533-0.662-190.457-0.155
			c-0.341,0.92-0.805,1.918-1.086,2.965c-11.185,41.68-22.352,83.364-33.526,125.046c-0.453,1.688-0.958,3.362-1.524,5.342
			c-1.25,0.138-2.474,0.375-3.699,0.389c-7.677,0.087-15.354,0.146-23.032,0.173c-14.877,0.054-29.754,0.081-44.631,0.118
			c-1.746,0.004-3.491,0-5.632,0c0.175-1.374,0.19-2.427,0.453-3.415c6.089-22.857,12.207-45.708,18.316-68.56
			c11.888-44.468,23.773-88.938,35.665-133.405c0.37-1.384,0.803-2.751,1.188-4.061c1.795-0.947,3.585-0.549,5.303-0.552
			c19.197-0.032,38.394-0.02,57.59-0.02c66.55,0,133.099,0,199.648,0c1.905,0,3.809,0,5.552,0
			c1.742-3.944,15.094-53.934,15.578-58.094c-0.114-0.088-0.219-0.192-0.344-0.262c-0.139-0.077-0.291-0.14-0.445-0.177
			c-0.153-0.037-0.317-0.035-0.476-0.048c-0.16-0.013-0.319-0.027-0.479-0.035c-0.16-0.007-0.32-0.006-0.48-0.008
			c-0.16-0.002-0.32-0.004-0.48-0.005c-0.16-0.001-0.32-0.001-0.48-0.001c-0.32,0-0.64,0-0.96-0.001c-0.16,0-0.319,0-0.479,0
			c-0.48,0-0.96,0-1.439,0c-85.747,0-171.493,0-257.239,0c-0.16,0-0.32,0-0.48,0s-0.32,0-0.48,0c-0.32-0.001-0.64-0.001-0.96-0.002
			c-0.16-0.001-0.32-0.003-0.48-0.005c-0.16-0.002-0.32-0.001-0.479-0.01c-0.16-0.008-0.32-0.017-0.478-0.042
			c-0.155-0.025-0.311-0.059-0.458-0.113c-0.149-0.055-0.287-0.14-0.619-0.308c0.108-0.851,0.1-1.809,0.36-2.688
			c3.374-11.396,7.843-22.311,14.331-32.331c13.125-20.271,31.722-32.47,55.213-37.457c8.955-1.9,18.036-2.68,27.164-2.686
			c64.63-0.043,129.259-0.053,193.889,0.009c10.088,0.009,20.135,0.78,29.903,3.624c4.78,1.392,9.354,3.26,13.564,5.951
			c9.172,5.86,14.365,14.276,16.255,24.925c1.28,7.213,0.797,14.352-0.509,21.465c-2.195,11.959-5.411,23.679-8.548,35.413
			c-21.96,82.145-43.926,164.287-65.911,246.425C1427.553,2182.778,1427.284,2185.041,1426.102,2186.854z"/>
		<path fill="#FFFF00" stroke="#000000" stroke-width="15" stroke-miterlimit="10" d="M1933.893,1918.353
			c0.083-1.018,0.028-1.805,0.222-2.526c6.51-24.205,12.868-48.451,19.495-72.617c0.928-0.162,1.542-0.339,2.161-0.361
			c1.438-0.052,2.879-0.035,4.318-0.035c111.977,0,223.954-0.005,335.931,0.007c9.132,0.001,18.224,0.552,27.148,2.678
			c5.151,1.228,10.101,2.986,14.729,5.613c10.427,5.919,16.389,14.924,18.558,26.6c1.603,8.626,0.887,17.205-0.472,25.771
			c-1.658,10.448-4.794,20.541-7.508,30.728c-16.169,60.694-32.421,121.365-48.636,182.046
			c-5.859,21.925-11.691,43.857-17.55,65.782c-0.408,1.526-0.938,3.02-1.486,4.766c-1.147,0.11-2.218,0.301-3.29,0.302
			c-23.355,0.017-46.71,0.017-70.066,0.002c-1.102,0-2.204-0.154-3.223-0.23c-0.728-1.656,0.091-2.983,0.45-4.339
			c5.555-21.014,11.121-42.025,16.712-63.03c16.528-62.085,33.07-124.167,49.602-186.251c0.452-1.698,0.995-3.387,1.262-5.116
			c0.853-5.531-1.81-8.937-7.397-9.572c-0.949-0.108-1.917-0.088-2.875-0.088c-25.595-0.004-51.189-0.003-76.784-0.002
			c-0.949,0-1.898,0-3.099,0c-0.493,1.474-1.008,2.776-1.366,4.12c-12.152,45.554-24.296,91.11-36.429,136.669
			c-10.941,41.081-21.867,82.165-32.81,123.245c-0.366,1.375-0.847,2.721-1.217,3.898c-0.333,0.222-0.46,0.321-0.602,0.396
			c-0.137,0.072-0.289,0.168-0.435,0.169c-7.356,0.053-14.711,0.163-22.066,0.129c-17.593-0.082-35.186-0.23-52.779-0.37
			c-0.288-0.002-0.574-0.236-1.158-0.493c0.127-0.812,0.188-1.722,0.418-2.587c5.984-22.553,11.976-45.104,17.987-67.649
			c17.087-64.084,34.186-128.167,51.27-192.252c0.406-1.521,0.698-3.073,1.11-4.906c-1.157-0.144-2.049-0.317-2.946-0.352
			c-1.438-0.055-2.879-0.017-4.318-0.017c-52.469,0-104.938,0.001-157.407-0.005
			C1937.608,1918.473,1935.87,1918.398,1933.893,1918.353z"/>
		<path fill="#FFFF00" stroke="#000000" stroke-width="15" stroke-miterlimit="10" d="M2462.213,2052.782
			c-0.686,2.324-1.272,4.142-1.757,5.988c-3.489,13.295-6.979,26.589-10.406,39.9c-0.474,1.84-0.867,3.776-0.828,5.658
			c0.09,4.368,2.495,6.737,6.855,7.062c1.432,0.106,2.878,0.047,4.317,0.046c39.993-0.022,79.985-0.041,119.979-0.071
			c26.715-0.021,53.43-0.061,80.145-0.075c1.733-0.001,3.499-0.222,5.384,0.355c-0.14,1.041-0.164,1.99-0.402,2.883
			c-6.416,24.077-12.855,48.149-19.355,72.466c-1.824,0.046-3.4,0.118-4.977,0.122c-18.717,0.037-37.433,0.078-56.148,0.089
			c-54.391,0.031-108.781,0.04-163.172,0.082c-8.514,0.007-16.946-0.714-25.174-2.938c-3.531-0.955-7.042-2.166-10.355-3.706
			c-13.528-6.284-20.685-17.165-22.165-31.836c-0.989-9.803,0.021-19.521,2.396-29.038c3.174-12.714,6.63-25.358,10.016-38.02
			c8.919-33.35,17.864-66.693,26.805-100.038c0.371-1.382,0.795-2.75,1.131-3.903c0.358-0.256,0.473-0.359,0.606-0.427
			c0.141-0.072,0.299-0.157,0.451-0.157c97.741-0.042,195.482-0.078,293.224-0.109c0.789,0,1.578,0.065,2.539,0.107
			c0.654,1.723-0.158,3.204-0.537,4.639c-3.227,12.207-6.528,24.395-9.805,36.588c-2.654,9.879-5.299,19.76-7.964,29.636
			c-0.408,1.512-0.897,3.001-1.408,4.696C2608.452,2052.782,2535.529,2052.782,2462.213,2052.782z"/>
		<path fill="#FFFF00" stroke="#000000" stroke-width="15" stroke-miterlimit="10" d="M1811.24,2111.499
			c0,0.817,0.133,1.465-0.019,2.036c-6.472,24.391-12.969,48.775-19.407,72.946c-2.018,0.971-3.807,0.622-5.538,0.624
			c-42.067,0.05-84.134,0.074-126.202,0.104c-31.031,0.021-62.062,0.036-93.092,0.075c-8.352,0.01-16.629-0.707-24.691-2.922
			c-3.833-1.053-7.672-2.335-11.234-4.075c-13.022-6.362-19.896-17.072-21.379-31.363c-1.053-10.146,0.109-20.145,2.58-29.961
			c3.588-14.256,7.421-28.451,11.22-42.654c20.36-76.109,40.742-152.211,61.121-228.315c0.411-1.536,0.885-3.056,1.384-4.772
			c1.137-0.14,2.214-0.388,3.291-0.389c23.513-0.022,47.026-0.021,70.539-0.003c1.072,0.001,2.145,0.204,3.575,0.35
			c-0.392,1.797-0.665,3.334-1.065,4.838c-7.806,29.344-15.625,58.685-23.447,88.024c-14.448,54.199-28.905,108.396-43.337,162.6
			c-0.613,2.301-1.307,4.601-0.715,7.073c0.776,3.245,2.505,5.069,5.761,5.573c1.254,0.194,2.552,0.145,3.83,0.145
			c63.821-0.018,127.642-0.041,191.463-0.069c4.158-0.002,8.317-0.066,12.475-0.07
			C1809.288,2111.291,1810.224,2111.423,1811.24,2111.499z"/>
		<path fill="#FFFF00" stroke="#000000" stroke-width="15" stroke-miterlimit="10" d="M2737.461,1843.48
			c0.041,0.38,0.231,0.88,0.12,1.299c-6.479,24.392-12.981,48.777-19.522,73.312c-1.24,0.141-2.32,0.312-3.406,0.372
			c-1.116,0.062-2.238,0.015-3.358,0.015c-94.688,0-189.376,0.002-284.064-0.014c-2.057,0-4.149,0.307-6.17-0.343
			c0.32-3.953,18.416-71.474,20.057-74.883c0.132-0.079,0.257-0.176,0.398-0.231c0.147-0.058,0.31-0.107,0.466-0.107
			c97.246-0.031,194.492-0.058,291.738-0.083c0.799,0,1.598,0.034,2.396,0.058c0.158,0.005,0.32,0.024,0.473,0.065
			c0.152,0.041,0.306,0.102,0.441,0.182C2737.156,1843.197,2737.26,1843.31,2737.461,1843.48z"/>
		<path fill="#FFFF00" stroke="#000000" stroke-width="15" stroke-miterlimit="10" d="M1938.972,2186.825
			c-4.338,0.605-72.184,0.483-76.537-0.087c-0.757-1.275-0.059-2.459,0.259-3.658c6.928-26.103,13.849-52.207,20.796-78.304
			c10.77-40.457,21.558-80.908,32.343-121.36c0.529-1.985,1.108-3.957,1.543-5.506c0.579-0.418,0.694-0.53,0.831-0.592
			c0.143-0.064,0.309-0.111,0.464-0.111c24.149-0.035,48.298-0.066,72.447-0.091c0.799-0.001,1.598,0.046,2.396,0.091
			c0.151,0.008,0.303,0.102,0.442,0.178c0.128,0.07,0.241,0.169,0.494,0.351c-0.025,0.536,0.058,1.19-0.1,1.78
			C1975.89,2048.669,1957.411,2117.817,1938.972,2186.825z"/>
	</g>
</g>
</svg>
