<svg xmlns="http://www.w3.org/2000/svg" xmlns:xlink="http://www.w3.org/1999/xlink" version="1.1" id="Your_Icon" x="0px" y="0px" width="100px" height="100px" viewBox="0 0 100 100" enable-background="new 0 0 100 100" xml:space="preserve">
<g>
	<g>
		<circle cx="53.749" cy="53.332" r="4.089"/>
	</g>
	<g>
		<path d="M55.523,46.881c4.031,0,8.906,0.021,8.332-4.609c-0.246-1.976-1.852-6.252-8.373-3.723    c-6.525,2.53-11.81,6.313-11.277,7.676C44.74,47.58,51.488,46.881,55.523,46.881z"/>
	</g>
	<g>
		<path d="M83.555,49.595c-2.166,0-4.211,0.519-6.02,1.443l-3.227-5.132l-0.404,0.255l-3.861-6.134l-3.285-5.219L59.809,23.76    l-1.566,1.849c-0.428-0.05-0.875,0.106-1.174,0.459l-3.221,3.79c-0.475,0.558-0.402,1.391,0.15,1.863    c0.246,0.208,0.553,0.311,0.852,0.311c0.375,0,0.746-0.159,1.004-0.466l3.227-3.798c0.297-0.353,0.375-0.818,0.254-1.228    l0.299-0.353l6.102,9.689l-2.785,2.916c0.332,0.367,0.607,0.775,0.824,1.213l2.746-2.872l2.432,3.86l0.691,1.105l-2.801,2.184    l-0.066,0.227c-0.217,0.772-5.406,18.93-5.621,19.812c-0.445,1.835-1.18,3.628-4.748,3.628H42.095    c-1.073,0-1.695-0.106-2.248-0.66h2.779c0.356,0,0.674-0.159,0.882-0.416h10.56c4.432,0,5.613-2.523,6.148-4.726    c0.055-0.215,0.51-1.856,2.377-8.42c0.027-0.099,0.033-0.198,0.02-0.29l1.035-2.611l-6.26-3.381    c-0.561,0.014-1.123,0.014-1.672,0.014l-0.563,1.42c1.885,0.6,3.258,2.371,3.258,4.453c0,2.224-1.561,4.087-3.643,4.553    l2.27,1.221h-6.957l2.388-1.284c-1.952-0.558-3.39-2.357-3.39-4.489c0-1.959,1.214-3.639,2.933-4.33l-0.566-1.43    c-0.692,0.021-1.389,0.05-2.062,0.057l-5.917,3.197l1.209,3.06l5.038,5.417l0.12-0.063v6.197h-6.327    c-0.208-0.261-0.526-0.42-0.882-0.42h-4.143c-0.058-0.131-0.12-0.265-0.185-0.398l-0.166-0.367    c-0.236-0.512-0.421-0.918-0.635-1.369c0.381-0.269,0.72-0.544,1.048-0.819c0.298-0.239,0.575-0.466,0.874-0.677    c0.681-0.48,2.707-2.04,5.999-4.832c0.3-0.254,0.339-0.709,0.081-1.013c-0.254-0.303-0.711-0.339-1.011-0.084    c-3.251,2.759-5.24,4.291-5.898,4.757c-0.337,0.24-0.653,0.494-0.953,0.741c-0.254,0.204-0.505,0.409-0.77,0.606    c-0.464-0.96-1.122-2.314-2.241-4.58h6.486v-5.823c-1.146,0.434-2.744,0.72-4.99,0.72c-0.988,0-1.849-0.049-2.606-0.138v2.996    c-0.477-0.96-1.009-2.039-1.615-3.268c-0.974-0.223-1.706-0.529-2.283-0.872c-0.25,0.046-0.49,0.173-0.674,0.378l-1.144,1.267    c-2.216-1.662-4.969-2.646-7.945-2.646c-7.313,0-13.265,5.946-13.265,13.262s5.952,13.266,13.265,13.266    c5.758,0,10.673-3.691,12.501-8.833h5.701c0.923,1.496,1.922,2.1,4.037,2.1h14.312c4.43,0,5.611-2.526,6.146-4.722    c0.168-0.678,3.66-12.944,5.545-19.536l2.318-1.807l2.271,3.605l-0.404,0.255l3.225,5.135c-3.17,2.424-5.215,6.243-5.215,10.537    c0,7.315,5.947,13.266,13.262,13.266s13.266-5.95,13.266-13.266S90.869,49.595,83.555,49.595z M57.279,59.239l0.121,0.063    l3.043-3.271c-1.025,3.603-1.555,5.501-1.625,5.776c-0.258,1.052-0.609,2.093-1.539,2.788V59.239z M24.449,64.766h4.393    c-0.014,0.085-0.033,0.17-0.055,0.251h-4.338c-0.626,0-1.138,0.508-1.138,1.14c0,0.621,0.512,1.133,1.138,1.133h3.453    c-1.568,2.834-4.585,4.761-8.046,4.761c-5.067,0-9.191-4.125-9.191-9.193c0-5.07,4.124-9.192,9.191-9.192    c1.932,0,3.723,0.604,5.204,1.623l-4.448,4.94c-0.238-0.07-0.496-0.109-0.755-0.109c-1.514,0-2.738,1.225-2.738,2.738    c0,1.511,1.225,2.735,2.738,2.735c1.511,0,2.739-1.225,2.739-2.735c0-0.363-0.073-0.709-0.201-1.026l4.446-4.94    c1.3,1.524,2.112,3.469,2.197,5.604h-4.587c-0.626,0-1.138,0.505-1.138,1.137C23.311,64.258,23.822,64.766,24.449,64.766z     M29.582,53.848l1.142-1.271c0.026-0.028,0.051-0.063,0.076-0.096c2.865,5.795,4.099,8.297,4.831,9.817    c-0.653,0.293-1.452,0.509-2.513,0.583c0-0.008,0-0.021,0-0.025C33.117,59.381,31.774,56.216,29.582,53.848z M32.941,65.017    c0.032-0.184,0.06-0.371,0.081-0.554c0.044-0.043,0.092-0.092,0.129-0.146c1.308-0.081,2.295-0.356,3.097-0.716    c0.19,0.402,0.365,0.783,0.575,1.249l0.078,0.166H32.941z M83.555,72.05c-5.066,0-9.188-4.125-9.188-9.193    c0-2.841,1.295-5.385,3.322-7.068l3.543,5.622c-0.262,0.42-0.416,0.914-0.416,1.446c0,1.511,1.229,2.735,2.738,2.735    s2.738-1.225,2.738-2.735c0-1.514-1.229-2.738-2.738-2.738c-0.102,0-0.195,0.007-0.297,0.018l-3.541-5.625    c1.17-0.544,2.467-0.847,3.838-0.847c5.068,0,9.191,4.122,9.191,9.192C92.746,67.925,88.623,72.05,83.555,72.05z"/>
	</g>
	<g>
		<path d="M73.143,40.713v-7.267c-2.008,0-3.635,1.627-3.635,3.632C69.508,39.082,71.135,40.713,73.143,40.713z"/>
	</g>
	<g>
		<path d="M74.637,37.078c0-2.005-0.512-3.632-1.135-3.632v7.267C74.125,40.713,74.637,39.082,74.637,37.078z"/>
	</g>
	<g>
		<path d="M44.397,61.657h-3.344c-0.803,0-1.456,0.652-1.456,1.457c0,0.801,0.653,1.454,1.456,1.454h3.344    c0.807,0,1.459-0.653,1.459-1.454C45.857,62.31,45.204,61.657,44.397,61.657z"/>
	</g>
	<g>
		<path d="M36.122,51.295c7.219,0,7.229-2.875,7.506-4.273c0.279-1.396,0.083-3.49-1.137-2.435    c-1.221,1.059-3.058,2.937-6.791,2.937c-3.734,0-6.045-2.975-7.729-1.856c-0.851,0.567-1.286,1.002-0.178,2.294    C28.902,49.256,29.613,51.295,36.122,51.295z"/>
	</g>
</g>
</svg>