<svg xmlns="http://www.w3.org/2000/svg" xmlns:xlink="http://www.w3.org/1999/xlink" version="1.1" id="Layer_1" x="0px" y="0px" width="100px" height="100px" viewBox="0 0 100 100" enable-background="new 0 0 100 100" xml:space="preserve">
<path fill-rule="evenodd" clip-rule="evenodd" d="M70.758,54.231c-0.617-2.471,0.238-4.248,2.832-4.347  c6.384-0.243,12.753-0.342,18.512,3.356c3.299,2.119,3.88,5.655,5.232,8.775c0.563,1.305-0.743,2.393-1.914,2.383  c-7.003-0.066-14.294,2.174-20.783-2.376C73.004,59.596,71.431,57.139,70.758,54.231z"/>
<path fill-rule="evenodd" clip-rule="evenodd" d="M86.03,70.401c-6.142,0-12.529,0.003-18.917-0.004  c-1.569-0.003-3.241,0.208-3.273-2.214c-0.028-2.332,1.516-2.39,3.158-2.402c9.387-0.079,18.773-0.099,28.157-0.269  c2.53-0.044,3.143,1.372,3.251,3.383c0.14,2.559-1.803,2.077-3.273,2.061c-3.14-0.037-5.638-0.073-8.267,3.006  c-4.907,5.736-13.856,4.059-17.528-2.967C75.16,71.16,80.966,75.973,86.03,70.401z"/>
<path fill-rule="evenodd" clip-rule="evenodd" d="M18.535,61.918c-0.409,6.457-1.854,9.044-5.654,9.138  c-2.747,0.066-5.306-2.304-5.481-5.079c-0.208-3.315,1.975-5.357,5.938-5.508c-0.137,2.001-2.192,3.226-2.125,5.271  c0.009,0.358,0.229,0.709,0.36,1.076c3.64-6.324,7.239-12.597,10.867-18.853c0.479-0.821,0.814-1.988,2.272-1.106  c1.26,0.76,1.212,1.651,0.408,2.543c-2.632,2.911-2.013,5.463,0.029,8.581c2.256,3.442,1.519,7.846,2.466,11.751  c0.348,1.436-0.718,1.462-1.605,1.534c-2.744,0.239-4.438-1.247-5.42-3.611C19.811,65.781,19.214,63.835,18.535,61.918z"/>
<path fill-rule="evenodd" clip-rule="evenodd" d="M31.724,57.776c-0.019-2.033-0.874-3.957-1.93-5.435  c-2.342-3.28-1.627-5.885,0.906-8.564c1.097,1.755,1.27,4.054,3.133,5.298c0.664,0.442,0.935,0.939,0.277,1.516  c-1.033,0.908-1.946,1.945-1.448,3.355c0.868,2.448,1.796,4.899,3.015,7.183c0.459,0.862,2.313-0.739,2.993,0.843  c3.558,6.981,7.032,7.903,18.521,4.62c-2.722-3.146-3.459-6.33,0.396-9.028c0.507,0.541,1.19,1.263,1.872,1.984  c0.163,0.471,0.326,0.943,0.492,1.415c-0.284,1.8,2.523,3.944-0.744,5.176c0.568,1.213,1.452,0.915,2.176,0.944  c1.037,0.039,1.825,0.236,1.659,1.532c-0.146,1.138-1.059,0.976-1.776,0.956c-5.925-0.153-11.627,1.344-17.414,2.237  c-5.143,0.794-13.956-5.415-14.846-10.455c-0.367-2.08,0.374-3.593,2.808-3.657c-1.241,5.38,4.936,12.328,10.277,11.314  C38.424,65.367,33.115,63.341,31.724,57.776z"/>
<path fill-rule="evenodd" clip-rule="evenodd" d="M47.259,41.387c1.978,1.948,5.851,3.885,5.169,6.068  c-0.74,2.373-4.994,0.97-7.648,1.649c-1.589,0.407-3.356,0.132-5.044,0.113c-2.712-0.03-5.302-0.479-6.308-3.47  c-1.027-3.069,0.405-5.208,3.012-6.74C40.364,38.367,43.708,40.346,47.259,41.387z"/>
<path fill-rule="evenodd" clip-rule="evenodd" d="M12.412,57.263c-1.046,0.521-2.118,0.992-3.126,1.573  c-2.706,1.547-4.25,3.869-4.145,7.028c0.104,3.152,1.748,5.475,4.594,6.731c3.034,1.348,5.854,0.67,8.343-1.492  c0.906-0.791,1.308-2.726,3.184-0.782c1.745,1.804,0.59,2.684-0.549,3.778c-4.275,4.105-11.145,4.188-15.656,0.207  c-4.394-3.886-5.172-10.491-1.863-15.283c2.571-3.717,6.145-1.518,9.322-1.671L12.412,57.263z"/>
<path fill-rule="evenodd" clip-rule="evenodd" d="M56.115,52.581c-0.024-2.512-2.114-4.359-2.463-7.321  c1.826,0.862,3.235,1.648,4.729,2.207c2.259,0.844,4.69,1.305,6.69-0.375c4.403-3.698,9.514-2.725,14.53-2.535  c1.796,0.068,3.161,0.912,3.031,2.804c-0.157,2.235-2.062,1.513-3.335,1.402c-4.56-0.391-8.856-0.222-11.613,4.25  c-3.804,0.619-7.594,0.271-11.388-0.119L56.115,52.581z"/>
<path fill-rule="evenodd" clip-rule="evenodd" d="M30.528,40.292c-0.9,1.717-1.787,3.443-2.712,5.147  c-0.424,0.776-0.817,1.792-2.004,0.945c-0.753-0.537-2.106-0.676-1.343-2.236c0.578-1.184,0.788-2.562,0.332-3.806  c-1.918-5.221,0.291-9.146,3.634-12.918c2.035-2.296,3.694-4.921,5.851-7.223c-0.019,5.31-2.058,9.841-5.127,13.968  c-1.962,2.637-1.956,4.729,1.369,6.134V40.292z"/>
<path fill-rule="evenodd" clip-rule="evenodd" d="M59.459,59.548c-0.003-1.59-2.342-3.816-0.653-4.441  c2.632-0.971,5.835-1.084,8.675,0.29c0.446,0.214,0.808,0.609,1.206,0.922c0.22,0.485,0.44,0.974,0.66,1.461  c1.264,2.651,0.577,5.207-1.505,6.771c-2.288,1.71-5.83-0.15-7.891-3.587C59.785,60.491,59.622,60.019,59.459,59.548z"/>
<path fill-rule="evenodd" clip-rule="evenodd" d="M52.969,58.416c-1.691,0.969,2.319,3.278-1.117,3.835  c-2.978-0.237-5.191-2.808-8.437-2.229c-1.414-0.236-2.829-0.473-4.248-0.709c-0.628-0.343-1.257-0.689-1.886-1.038  c-0.047-0.159-0.085-0.324-0.114-0.488c0.152-1.686-0.68-1.857-2.116-1.113c0.339-1.291,0.679-2.575,1.016-3.863  c3.614-3.785,7.978-3.446,12.565-1.832c1.831,1.823,2.383,4.139,3.042,6.412C51.763,58.081,52.141,58.475,52.969,58.416z"/>
<path fill-rule="evenodd" clip-rule="evenodd" d="M12.517,57.353c-3.091-2.527-6.7-0.802-10.05-1.213  c2.081-4.297,11.377-7.058,15.146-4.563c0.756,0.5,0.829,1.078,0.373,1.531c-1.337,1.321-0.893,4.284-3.746,4.151  c-0.623-0.028-1.226-0.425-1.841-0.01C12.412,57.263,12.517,57.353,12.517,57.353z"/>
<path fill-rule="evenodd" clip-rule="evenodd" d="M17.791,39.758c0.131-0.847,0.31-1.87,0.447-2.896  c0.201-1.503,1.2-1.826,2.508-1.816c1.241,0.01,2.342,0.056,2.504,1.697c0.179,1.8,0.647,3.585,0.673,5.381  c0.022,1.838-0.756,3.145-2.971,3.311c-2.498,0.185-2.708-1.407-2.906-3.159C17.957,41.501,17.89,40.726,17.791,39.758z"/>
<path fill-rule="evenodd" clip-rule="evenodd" d="M30.528,40.302c-1.11-1.884-3.111-3.867,0.695-5.13  c0.386-0.129,0.677-0.773,0.868-1.238c2.156-5.292,7.606-8,9.98-13.601c0.871,3,0.74,2.808-1.264,4.157  c-1.566,1.056-1.541,2.79-0.488,4.398c-0.073,0.576-0.146,1.153-0.22,1.731c0.591,0.995,1.117,2.002,0.504,3.656  c-1.222-1.811-3.025-2.884-2.604-6.188c-3.475,4.21-5.296,8.318-7.469,12.202C30.528,40.292,30.528,40.302,30.528,40.302z"/>
<path fill-rule="evenodd" clip-rule="evenodd" d="M61.91,71.7c-5.057,2.511-10.446,0.887-15.685,1.183  C51.343,71.387,56.537,70.628,61.91,71.7z"/>
<path fill-rule="evenodd" clip-rule="evenodd" d="M40.099,30.619c0.074-0.578,0.147-1.155,0.22-1.731  c0.855-0.276,1.516-1.615,2.642-0.434c1.034,1.086,2.38,1.974,3.095,3.229c0.399,0.704-0.724,1.197-1.554,0.867  C43.015,31.957,41.567,31.268,40.099,30.619z"/>
<path fill-rule="evenodd" clip-rule="evenodd" d="M49.138,67.103c0.144-2.948,2.657-3.396,4.135-4.949  C54.919,66.237,54.288,66.987,49.138,67.103z"/>
<path fill-rule="evenodd" clip-rule="evenodd" d="M41.83,60.051c4.406,0.884,4.558,4.332,6.587,6.663  C41.933,67.949,40.936,66.932,41.83,60.051z"/>
</svg>